<?xml version="1.0" encoding="utf-8"?>
<!-- Generator: Adobe Illustrator 16.0.4, SVG Export Plug-In . SVG Version: 6.00 Build 0)  -->
<!DOCTYPE svg PUBLIC "-//W3C//DTD SVG 1.1//EN" "http://www.w3.org/Graphics/SVG/1.1/DTD/svg11.dtd">
<svg version="1.1" id="Layer_1" xmlns="http://www.w3.org/2000/svg" xmlns:xlink="http://www.w3.org/1999/xlink" x="0px" y="0px"
	 width="1920px" height="1080px" viewBox="0 0 1920 1080" enable-background="new 0 0 1920 1080" xml:space="preserve">
<path fill="none" stroke="#54B948" stroke-width="20" stroke-miterlimit="10" d="M176.6,927.8l-155-368.6c-5.2-14.601-5.2-29,0-42.4
	l155-368.8c5.2-12.2,22.4-21.2,43-21.2h1483.6c20.6,0,37.8,9,43,21.2l155,368.6c5.2,14.601,5.2,29,0,42.4l-155,368.6
	c-5.2,12.2-22.4,21.2-43,21.2H219.6C199,949,181.8,940.2,176.6,927.8z"/>
<polyline fill="#54B948" points="575.5,487.444 741.472,653.416 1239.389,155.5 1239.389,404.458 741.472,902.375 575.5,736.402 "/>
</svg>
