<?xml version="1.0" encoding="utf-8"?>
<!-- Generator: Adobe Illustrator 18.1.1, SVG Export Plug-In . SVG Version: 6.00 Build 0)  -->
<svg version="1.1" id="Layer_1" xmlns="http://www.w3.org/2000/svg" xmlns:xlink="http://www.w3.org/1999/xlink" x="0px" y="0px"
	 viewBox="0 0 1349.9 560" enable-background="new 0 0 1349.9 560" xml:space="preserve">
<g id="Highways" transform="matrix(0.3333238,0,0,-0.3333238,1748.5,1520.7373)">
	<g>
		<path id="path16437_8_" fill="none" stroke="#FFFFFF" stroke-width="4" stroke-linecap="round" stroke-miterlimit="10" d="
			M-2854,3967.3"/>
		<path id="path16441_7_" fill="none" stroke="#FFFFFF" stroke-width="4" stroke-linecap="round" stroke-miterlimit="10" d="
			M-1345.3,2955.2c1.1,0.1,2.1,0.2,3.2,0.1"/>
		<path id="path16443_7_" fill="none" stroke="#FFFFFF" stroke-width="4" stroke-linecap="round" stroke-miterlimit="10" d="
			M-1648.7,4125c-1.5-9.5-3.9-24.5-11.2-31.2c-6.7-12-4.9-31.2-7.8-43.7c-2.6-9.8-25.4-23.6-20.2-33.7c1.2-3.5-14.6-12.7-17.3-15
			c-3-2.5-5.6-16.1-8.3-22c-3.8-9.7,6.8-13.3,2.3-26c0.8-11.3,9.1-48,3.7-59.2c18.6-0.7,20.7-48.8,23.1-62.7
			c3.6-7.9,18-18.3,18.7-26.1c9.3-8.7,16.2-20.9,22-34.2c3.7-8.3,7.5-19.5,16.5-27c7.4-13.5,17.5-18.1,24-32.3
			c2.5-5.4,7.2-11.1,9.8-16.5c1.9-4.4,2.9-8.1,5.3-13.5c5.4-9.7,6.6-25.5,12.8-34.5c14-20.5,31.3-34,38.7-57.9
			c4-12.8,6.6-25.4,11.5-37.3c6.4-13,7.1-26,15.9-37.4c2.1-10.7,0.9-18.8,8.9-27.2c9.1-11,23.3-22.2,24.8-37.5
			c1.4-9.3-1.2-20.7,6-27c14.1-10.6,18.3-19,22.3-35.8c17.7-17.5,23-65.2,41.2-86.5c4.1-8.7,16.1-9.6,14.8-19.5
			c-3.4-10-0.9-26.7,2.8-37c3.1-6.7,1.3-13.8,6-19.3c15.1-9.7,18,3,25.5-7.5c2.4-9.1,11.3-19.8,17.5-28.5
			c0.1-3.5,16.5-20.6,18.2-25.2c2.2-8.3-4.3,2.6-4.3-30c0.9-33.1,10.4-54.6,9.3-75.5c-5.5-17.2-10.6-37.1-6.7-55.8
			c0.6-10.8,7.8-13.8-0.5-20c0.8-6.5,1.7-32.9-4.3-38"/>
		<path id="path16445_8_" fill="none" stroke="#FFFFFF" stroke-width="4" stroke-linecap="round" stroke-miterlimit="10" d="
			M-1348.9,2959c-10.9-1.1-7.4,13.3-4.7,20.8c-0.5,10.3-10.1,15.5-3.2,25.6c-21.9,3.8-64.8,10.9-87,9.6c-24.7-1.4-50.2,4.2-75,2.3
			c-42.1-3.2-73.5,0.2-115.9-0.9c-10.7-0.3-32.6-3.5-33.5,10.6c0.5,9.8-6.7,25.9-9,35.3c-6.6,7.1-8.9,14-10.5,23.3
			c0.8,7.8-1.1,50.6-6,56.3c-10,15.3-30.8,20.3-39,34.5c-11.3,9-17.9,36.3-27.8,45c-12.4,10.9-26.7,9.4-42.8,9.8
			c-30-2.3-37.1,10.5-39.8,30c1.5,26.9-1.5,60.8-15,60.8c-4.2,23.3,27.4,34.8,28.5,59.3c1.5,32.3,14.3,37.5-15.8,70.5
			c4.5,13.5,11.4,20.9,11.6,25.2c0.4,13.1,3.9,23.8,4.1,29c5.3,4.6,8.7,5.6,9.4,11.9c3.3,7.2,1.9,11,5.8,17.7
			c4.8,6.1,22.8,19.8,26.9,26.5c2.2,36.8,0.8,37.5-9.3,57.7c-6.1,10.5-13.8,28.8-12.4,40.6c-0.4,15.8-7.3,32.7-13.3,46.6
			c-15.2,21.3-35.4,35.1-52,55.4c-14,22.2-24.8,48.8-38.3,72.3c-14,24.3-34.3,39-54,59.2c-8.9,10-18.8,18.3-31,22.8
			c-13.3,4.9-20.1,19.7-32,27.3c-44.8,41-64.4,114.5-77.3,171.8c0,0-31.2,38.6-42.9,66.2c-11.7,27.7-9.6,69.1-9,78.2
			c0.5,9-2.1,60.6,2.1,76.6c4.3,16,14.9,34.6,14.9,37.2"/>
		<path id="path16447_8_" fill="none" stroke="#FFFFFF" stroke-width="4" stroke-linecap="round" stroke-miterlimit="10" d="
			M-1711.1,3894.1c-16.3,2.4-12.1-20.9-27.9-24.8c-19.5-6.1-55.5,1.1-75-4.5c-11.2-2.2-29.5,0.3-40.5-3c-36-2-83.9,2.3-119.3,14.3
			c-19.8,9.1-10.7,9-29.9,10.8c-16.5,3-32.9,8.4-49.6,10.4c-16.3,3.9-23.6,8.6-41,5.9c-13.8-0.5-6.7,6.6-17.8,10.7
			c-25.6,6.6-58.9,10.3-85,6c-12.6-0.7-23,3.4-35.4,4.4c-11.8-2.9-24.6-3-37.6,0.5c-13,3.5-29.5,10-42,11
			c-9.5,0.8-26.2,16.1-35.5,14.5c-22.5,8.5-59.3,8.7-82,23c-11.5,6.5-23.5,2.5-27.5,9c-4.6,7.5-63.2,2.3-85,4
			c-16.5,1.3-21.5,1.1-36.5-0.5c-18-10.2-23.7-9.7-44.5-8.5c-9.1-0.7-23.9,12.2-34.5,13c-25.8-3.6-64.5,5.9-90.5,3.5
			c-31.5-5.6-48.4-0.5-74.2-18.1c-9.9-6.1-22-13.4-33.8-13.7c-15.3-0.4-7.2,2.8-21.5,6c-16.5,1.2-34.9,18.5-50.3,25.7
			c-13.4,4.6-29.3,4-43.3,5c-10.6-1.2-48.8,19.5-54.8,9.1c-11.3-8.5-23.8-13.5-35.3-21.6c0,0-32.5-25.2-90.5-9.9
			c-58,15.3-95.2,11.3-119.3,8c-24.1-3.3-99-21-128-6c-37.4,19.4-48,38.7-117,42c-69,3.3-151.1,5.7-188,4
			c-44.6-2-76.1-33.7-197.6-31.6c-121.5,2.2-18.2,19.3-181.3,18.2s-131-13.6-139-14.6c-8-1-35.2,20.9-111.9-37.1
			c-50.1-7.9-92.6-2.7-130.1-2.9c-37.5-0.1-66-1.3-72.6-0.8c-2.5,0.2-10.6-0.1-22.6,2.9c-56.8,14.2-162.1,17.6-297.3,23.1
			c-61.8,2.5-39.5,16.7-154.1,12.3c-120.3-4.7-144.5-10.9-144.5-10.9"/>
		<path id="path16449_7_" fill="none" stroke="#FFFFFF" stroke-width="4" stroke-linecap="round" stroke-miterlimit="10" d="
			M-1855.1,3412.9c13.3,1.3,18.4,5,31.7,8.3c12.8,7,33.8,5.6,48.3,6.8c17.5,4.6,23.1,30.4,44.9,27.6c20.1-2.4,59.8,17.2,71.6,29.7
			c11.5,13,12.3,26.9,23.6,37.6c12.9,10.5,9,17.1,6.8,34.3c-1.5,21.3,12.4,37.8,19.6,55.1c7.3,22.9,10,23.3,33.2,35"/>
		<path id="path16451_7_" fill="none" stroke="#FFFFFF" stroke-width="4" stroke-linecap="round" stroke-miterlimit="10" d="
			M-1854.4,3338.3c-22.5-2.2-44.8-0.4-46.5,21.8c-0.3,13.6-0.6,31.6,9,42c10.5,7.8,26.1,8.8,37.5,11.3c3.5,4.8-0.6,21.7-0.8,27.8
			c1.4,5.6-0.1,10.2,6.8,10.9"/>
		<path id="path16453_7_" fill="none" stroke="#FFFFFF" stroke-width="4" stroke-linecap="round" stroke-miterlimit="10" d="
			M-1353.5,2958.9c5.1,0.4,16.8,0.4,21.9,1.8"/>
		<path id="path16455_8_" fill="none" stroke="#FFFFFF" stroke-width="4" stroke-linecap="round" stroke-miterlimit="10" d="
			M-3025.9,4007.8c-4.3,16-0.1,22.9,8.8,36c23,14.6,43,13.7,67.6,22.7c17.2,14.4,36.4,13.8,56.1,23.9c23.7,14.2,51.8,21.5,74.5,37
			c0,0,85,64,124,134c17.9,32.1,32.8,46.6,32.8,46.6s53.6-9.9,72.3,4.4s48.2,5.2,55.8,8.5s76.4,41.6,79.7,55.8"/>
		<path id="path16457_7_" fill="none" stroke="#FFFFFF" stroke-width="4" stroke-linecap="round" stroke-miterlimit="10" d="
			M-1707,3924.4c-21.3,4.6-26.3-23.6-22-40c8-12.8-0.2-14.6,16.5-17.9c8.4-1.5,14.9-4.2,23.3-2.9"/>
		<path id="path16459_7_" fill="none" stroke="#FFFFFF" stroke-width="4" stroke-linecap="round" stroke-miterlimit="10" d="
			M-1356.9,3005.4c10.3-1.9,21.1-3,31.2-5.9"/>
		<path fill="none" stroke="#FFFFFF" stroke-width="4" stroke-linecap="round" stroke-miterlimit="10" d="M-4646.5,4244
			c0,0,93.7-87.4,96.5-104.6c1.6-9.8-5-65.4-7.9-113.1c-2.1-35.2-0.4-67-1.2-67.9c-0.8-1,20.8,37.2,48.2,72.9
			c31.1,40.5,68.7,79.5,75.4,82.8c12.6,6.3,5.4,17.1,6.3,19.8s37.9,50.5,37.9,55.9c0,5.4-0.9,16.2,3.6,18.9s61.3,98.3,59.5,104.6
			c-1.8,6.3,58.6,37.9,69.4,37.9c10.8,0,64.1,0.5,64.1,0.5"/>
		<path fill="none" stroke="#FFFFFF" stroke-width="4" stroke-linecap="round" stroke-miterlimit="10" d="M-4130,4445.3
			c0,0,15-90,72-124.5s39-51,48-55.5c9-4.5,36-34.5,46.5-37.5c10.5-3,66-31.5,58.5-43.5c-7.5-12-13.5-31.5,12-45
			c25.5-13.5,15-28.5,16.5-33c1.5-4.5,30-33,28.5-39c-1.5-6-12-34.5-6-45c6-10.5,1.5-27,1.5-27"/>
		<path fill="none" stroke="#FFFFFF" stroke-width="4" stroke-linecap="round" stroke-miterlimit="10" d="M-3963.5,4463.3
			c0,0,37.5-30,52.5-31.5c15-1.5,40.5-7.5,45-9c4.5-1.5,33-1.5,40.5-4.5c7.5-3,34.5,0,46.5-6c12-6,39-10.5,45-10.5s37.5-6,37.5-6
			l28.5-10.5c0,0,19.5-3,24-3c4.5,0,27-6,31.5-10.5c4.5-4.5,34.5-7.5,42-7.5s55.5-3,61.5-3s42-4.5,42-4.5s52.5-13.5,63-13.5
			s39-4.5,46.5-6s30,0,34.5,1.5c4.5,1.5,31.5-1.5,36-1.5c4.5,0,60-1.5,73.5-1.5c10.1,0,39.7-3.4,59.5-3.8c6.6-0.1,12.1,0,15.5,0.8
			c13.5,3,31.5,15,45,6c13.5-9,40.5,16.5,49.5,22.5s30,42,40.5,40.5c10.5-1.5,42,25.5,66,43.5"/>
		<path fill="none" stroke="#FFFFFF" stroke-width="4" stroke-linecap="round" stroke-miterlimit="10" d="M-3152.9,4332.1
			c0,0-14.8-17.9-13.9-23c0.8-5.1-5.1-10.2-7.6-12.7c-2.5-2.5-5.9-9.3-5.9-11.9c0-2.5-18.7-19.5-20.4-22.1
			c-1.7-2.5-16.1-11.9-16.1-24.6s-28-28-31.4-31.4s-28-24.6-28-37.4s1.7-28.9-3.4-34.8c-5.1-5.9-17-38.2-22.1-42.5
			c-5.1-4.2-17-21.2-17-26.3c0-5.1-21.2-30.6-26.3-34.8c-5.1-4.2-38.2-48.4-37.4-52.7c0.8-4.2-68-59.5-83.3-62
			c-15.3-2.5-15.3-2.5-15.3-2.5s15.3,61.2,20.4,62.9c5.1,1.7,7.6,28,13.6,28.9"/>
		<path fill="none" stroke="#FFFFFF" stroke-width="4" stroke-linecap="round" stroke-miterlimit="10" d="M-3484.6,3913.1
			c0,0-42.5,21.2-48.4,25.5c-5.9,4.2,5.1,31.4,9.3,39.1c4.2,7.6,6.8,22.9,0,36.5c-6.8,13.6-11.9,27.2-9.3,30.6s-5.1,8.5-5.9,12.7
			c-0.8,4.2,2.5,13.6,3.4,17.8s3.4,18.7,3.4,26.3s7.6,26.3,10.2,28.9s9.3,23.8,7.6,31.4c-1.7,7.6,1.7,28,4.2,33.1
			c2.5,5.1,10.2,38.2,11,43.3s5.1,17.8,9.3,20.4c4.2,2.5,9.3,17,9.3,22.1c0,5.1,4.2,11.9,9.3,17c5.1,5.1,26.3,22.9,28.9,29.7
			s16.1,17.8,16.1,23.8c0,5.9,5.9,22.9,8.5,26.3s12.7,7.6,12.7,15.3c0,7.6,7.6,14.4,7.6,21.2s1.7,28,6.8,30.6
			c5.1,2.5,18.7,20.4,19.5,26.3s19.5,14.4,17,25.5"/>
		<path fill="none" stroke="#FFFFFF" stroke-width="4" stroke-linecap="round" stroke-miterlimit="10" d="M-4483,3864.3"/>
		<path fill="none" stroke="#FFFFFF" stroke-width="4" stroke-linecap="round" stroke-miterlimit="10" d="M-4558,3954.3
			c0,0,17.9-17,32-37c16.5-23.4,29.8-50.4,33-52c6-3,13-5,13-5"/>
		<path fill="none" stroke="#FFFFFF" stroke-width="4" stroke-linecap="round" stroke-miterlimit="10" d="M-5084.8,3624.7
			c0,0-3.3-5.5-10-3.3c-6.6,2.2-18.8,11.1-21.1,15.5c-2.2,4.4-10,10-10,14.4c0,4.4-2.2,17.7-8.9,22.2s-10,12.2-13.3,18.8
			c-3.3,6.6-14.4,32.1-17.7,39.9c-3.3,7.8-8.9,5.5-11.1,17.7c-2.2,12.2-5.5,14.4-18.8,36.6"/>
		<path fill="none" stroke="#FFFFFF" stroke-width="4" stroke-linecap="round" stroke-miterlimit="10" d="M-1786.9,3596.3
			c13.5-8.2,29.3-22,43.2-29.8c8.4-4.7,15.9-9,23.5-13.5c7-4.2,10.3-11.7,17.5-16.7c11.7-8.2,35.7-10.7,48.8-10
			c16,0.8,31.7,0.3,47.8,1.2c2.3,13.1-1.3,25.9-3,39.7c-0.5,3.7,4.7,11-1.7,12.2c-4.3,1-3.1-3.5-5.1-6.7
			c-4.5-7.3-8.8-18.5-10.6-27.3"/>
		<path fill="none" stroke="#FFFFFF" stroke-width="4" stroke-linecap="round" stroke-miterlimit="10" d="M-1634.9,3510.3
			c38.4-0.2,112.8-6.9,114.8-5.8c2,1.1-0.1,2.1,1.3,3.7c1.5,1.5,7,3,7.8,3.2"/>
		<path fill="none" stroke="#FFFFFF" stroke-width="4" stroke-linecap="round" stroke-miterlimit="10" d="M-1626.9,3491.3
			c11.6-1.2,26.1-2.3,30.3,10.9c3.4,10.7,2.8,23.1-8.8,26.6"/>
		<path fill="none" stroke="#FFFFFF" stroke-width="4" stroke-linecap="round" stroke-miterlimit="10" d="M-1406.9,3300.3
			c-6.1-2.3-12.9-3.2-20.8-3.1c-1.8,0-3-1.2-5.1,0.3c-2.1,1.5-1.8,3-2.9,4.3c-3.4,4.4-7.4,8.1-8.9,13.4c-0.5,1.8,0.8,4.2-0.6,6
			c-1.4,1.8-4.4,0.1-6.6,0.1c-8.6-0.1-17-0.9-25.5-0.9c-1.9,0-3.3-2-5.6,0.1s-1.8,4.4-2.9,6.7c-3.6,7.2-8.7,14.4-14.3,19.1
			c-3.8,3.1-8.8,4-12.4,7c-4,3.4-5.3,9-8.8,12.9c-4.4,4.9-10.4,7.2-15,11.9c-4.2,4.4-6.8,10.7-11,15c-3.6,3.7-7.2,5.4-11.4,7.1
			c-1.6,0.7-3.6,0.9-5.2,2.3c-1.5,1.5-0.9,5-2.2,7.1c-4.7,7.3-15.9,11.7-24.8,15.1c-2.6,1-6.1,0.8-7,2.8c-0.9,2-0.9,5.2-1.8,7.7
			c-2.1,5.8-5.4,11.3-7.1,17.2c-2.4,8.4-4.6,14.4-9.5,21.8c-4.2,6.3-8.9,12.4-12,19c-2,4.2-8.5,23.6-12,21"/>
		<path fill="none" stroke="#FFFFFF" stroke-width="4" stroke-linecap="round" stroke-miterlimit="10" d="M-1768.9,3430.3
			c2,0,3.4-1.4,5.6-0.9c3.4-9.7,18.8-16.4,28.2-7.9c5.4,4.9,8.9,24.5,8,31.5"/>
	</g>
</g>
</svg>
