<?xml version="1.0" encoding="utf-8"?>
<!-- Generator: Adobe Illustrator 17.1.0, SVG Export Plug-In . SVG Version: 6.00 Build 0)  -->
<!DOCTYPE svg PUBLIC "-//W3C//DTD SVG 1.1//EN" "http://www.w3.org/Graphics/SVG/1.1/DTD/svg11.dtd">
<svg version="1.1" id="Layer_1" xmlns="http://www.w3.org/2000/svg" xmlns:xlink="http://www.w3.org/1999/xlink" x="0px" y="0px"
	 viewBox="-60 -71 406 426" enable-background="new -60 -71 406 426" xml:space="preserve">
<filter  height="120%" width="120%" filterUnits="objectBoundingBox" x="-10%" y="-10%" id="Bevel">
	<feGaussianBlur  result="blur" stdDeviation="1.5" in="SourceAlpha"></feGaussianBlur>
	
		<feSpecularLighting  specularExponent="20" specularConstant=".9" lighting-color="white" result="specOut" in="blur" surfaceScale="5">
		<fePointLight  x="-5000" y="-5000" z="8000"></fePointLight>
	</feSpecularLighting>
	<feComposite  in2="SourceAlpha" result="specOut2" in="specOut" operator="in"></feComposite>
	<feComposite  k2="1" k1="0" in2="specOut2" k4="0" result="litPaint" in="SourceGraphic" k3="1" operator="arithmetic">
		</feComposite>
</filter>
<g opacity="0.3" filter="url(#Bevel)" enable-background="new    ">
	<path d="M305,296.4v47.8c0,4.8-3.7,8.5-8.5,8.5H159.1c-8.4,0-22.4,0-30.6,0H-9c-4.8,0-8.5-3.7-8.5-8.5v-47.8c0-1.3-0.3-2.8-0.9-3.7
		l-37.1-76c-0.5-1.2-0.9-2.5-0.9-3.7v-251c0-4.1,2.8-7.6,6.7-8.4L38-67.9c0.7-0.3,1.5-0.3,1.9-0.3h207c0.7,0,1.5,0.1,2,0.3l88,21.4
		c3.7,1.1,6.7,4.5,6.7,8.4l0.1,251.1c0,1.3-0.3,2.8-0.9,3.7l-37,76C305.3,293.8,305,295.1,305,296.4z"/>
</g>
</svg>
