<?xml version="1.0" encoding="utf-8"?>
<!-- Generator: Adobe Illustrator 17.1.0, SVG Export Plug-In . SVG Version: 6.00 Build 0)  -->
<!DOCTYPE svg PUBLIC "-//W3C//DTD SVG 1.1//EN" "http://www.w3.org/Graphics/SVG/1.1/DTD/svg11.dtd">
<svg version="1.1" id="Layer_1" xmlns="http://www.w3.org/2000/svg" xmlns:xlink="http://www.w3.org/1999/xlink" x="0px" y="0px"
	 viewBox="0 0 792 612" enable-background="new 0 0 792 612" xml:space="preserve">
<path fill="#FF3A37" d="M628.5,548.5V597c0,6.9-5.5,12.5-12.5,12.5H417.6c-12.2,0-32.2,0-44.3,0H174.8c-6.9,0-12.5-5.5-12.5-12.5
	v-48.5c0-1.8-0.5-3.8-1.2-5.5l-53.4-109.8c-0.8-1.7-1.2-3.5-1.2-5.5l0.2-383.1c0-5.9,4-10.8,9.5-12.2L242.8,1.5
	c0.9-0.3,2-0.3,2.9-0.3h299.1c0.9,0,2,0.2,2.9,0.3l127,30.9c5.5,1.4,9.5,6.5,9.5,12.2l0.2,383.2c0,1.8-0.5,3.8-1.2,5.5l-53.4,109.8
	C628.9,544.8,628.5,546.6,628.5,548.5z"/>
</svg>
