<?xml version="1.0" encoding="utf-8"?>
<!-- Generator: Adobe Illustrator 17.1.0, SVG Export Plug-In . SVG Version: 6.00 Build 0)  -->
<!DOCTYPE svg PUBLIC "-//W3C//DTD SVG 1.1//EN" "http://www.w3.org/Graphics/SVG/1.1/DTD/svg11.dtd">
<svg version="1.1" id="Layer_1" xmlns="http://www.w3.org/2000/svg" xmlns:xlink="http://www.w3.org/1999/xlink" x="0px" y="0px" viewBox="0 0 375 450" enable-background="new 0 0 375 450" xml:space="preserve">

	<filter id="Bevel" filterUnits="objectBoundingBox" x="-10%" y="-10%" width="120%" height="120%">
		<feGaussianBlur in="SourceAlpha" stdDeviation="1.5" result="blur"/>
		<feSpecularLighting in="blur" surfaceScale="5" specularConstant=".9" specularExponent="20" result="specOut" lighting-color="white">
			<fePointLight x="-5000" y="-5000" z="8000"/>
		</feSpecularLighting>
		<feComposite in="specOut" in2="SourceAlpha" operator="in" result="specOut2"/>
		<feComposite in="SourceGraphic" in2="specOut2" operator="arithmetic" k1="0" k2="1" k3="1" k4="0" result="litPaint" />
	</filter>
 

<path opacity="0.3" fill="#000000" enable-background="new" d="M264,258.9v33.7c0,3.4-2.7,6.1-6.1,6.1h-97c-6,0-15.8,0-21.6,0
	H42.1c-3.4,0-6.1-2.7-6.1-6.1v-33.7c0-0.9-0.2-1.9-0.6-2.7L9.3,202.6c-0.4-0.8-0.6-1.7-0.6-2.7L8.7,22.5c0-2.9,2-5.3,4.7-6L75.3,1.4
	c0.5-0.2,1-0.2,1.4-0.2H223c0.5,0,1,0.1,1.4,0.2l62.1,15.2c2.7,0.7,4.7,3.2,4.7,6l0.1,177.5c0,0.9-0.2,1.9-0.6,2.7l-26.2,53.7
	C264.2,257.1,264,258,264,258.9z" filter="url(#Bevel)"/>
</svg>
