<?xml version="1.0" encoding="utf-8"?>
<!-- Generator: Adobe Illustrator 18.1.1, SVG Export Plug-In . SVG Version: 6.00 Build 0)  -->
<svg version="1.1" id="Layer_1" xmlns="http://www.w3.org/2000/svg" xmlns:xlink="http://www.w3.org/1999/xlink" x="0px" y="0px"
	 viewBox="-47 0 313.4 284" enable-background="new -47 0 313.4 284" xml:space="preserve">
<filter  height="120%" width="120%" y="-10%" x="-10%" filterUnits="objectBoundingBox" id="Bevel">
	<feGaussianBlur  result="blur" in="SourceAlpha" stdDeviation="1.5"></feGaussianBlur>
	
		<feSpecularLighting  lighting-color="white" result="specOut" in="blur" surfaceScale="5" specularExponent="20" specularConstant=".9">
		<fePointLight  y="-5000" x="-5000" z="8000"></fePointLight>
	</feSpecularLighting>
	<feComposite  result="specOut2" in2="SourceAlpha" in="specOut" operator="in"></feComposite>
	<feComposite  result="litPaint" in2="specOut2" k3="1" in="SourceGraphic" operator="arithmetic" k4="0" k2="1" k1="0">
		</feComposite>
</filter>
<g opacity="0.3" filter="url(#Bevel)" enable-background="new    ">
	<path d="M219.5,262.4v12.5c0,3.3-2.5,5.8-5.8,5.8h-93.6c-5.7,0-15.3,0-20.8,0H5.7c-3.3,0-5.8-2.5-5.8-5.8v-12.5
		c0-0.9-0.2-1.9-0.6-2.5l-11.5-9c-0.3-0.8-0.6-1.7-0.6-2.5L-46,122.5L-20.8,9.7c0-2.8,1.9-5.2,4.6-5.7l251.6-0.1
		c2.5,0.7,4.6,3.1,4.6,5.7l26.4,112.8L232,248.3c0,0.9-0.2,1.9-0.6,2.5l-11.4,9C219.7,260.6,219.5,261.5,219.5,262.4z"/>
</g>
</svg>
