<?xml version="1.0" encoding="utf-8"?>
<!-- Generator: Adobe Illustrator 17.1.0, SVG Export Plug-In . SVG Version: 6.00 Build 0)  -->
<!DOCTYPE svg PUBLIC "-//W3C//DTD SVG 1.1//EN" "http://www.w3.org/Graphics/SVG/1.1/DTD/svg11.dtd">
<svg version="1.1" id="Layer_2" xmlns="http://www.w3.org/2000/svg" xmlns:xlink="http://www.w3.org/1999/xlink" x="0px" y="0px"
	 viewBox="0 0 300 300" enable-background="new 0 0 300 300" xml:space="preserve">
<path fill="#E4EFED" d="M223.7,122.1L154,82.2l0-0.5l-0.4,0.2l-0.4-0.2l0,0.4l-69.7,39.9c0,0-5.5,3,0,5h5l0.1,86c0,3.3,3.8,3,3.8,3
	l122.3,0c0,0,3.8,0.3,3.8-3l0.1-86h5C229.2,125.1,223.7,122.1,223.7,122.1z M107.6,214.1v-66.4l36.1-0.1l0,66.5H107.6z M202.4,183.7
	h-34.8l-0.1-35.5h34.9V183.7z"/>
</svg>
