<?xml version="1.0" encoding="utf-8"?>
<!-- Generator: Adobe Illustrator 17.1.0, SVG Export Plug-In . SVG Version: 6.00 Build 0)  -->
<!DOCTYPE svg PUBLIC "-//W3C//DTD SVG 1.1//EN" "http://www.w3.org/Graphics/SVG/1.1/DTD/svg11.dtd">
<svg version="1.1" id="Layer_2" xmlns="http://www.w3.org/2000/svg" xmlns:xlink="http://www.w3.org/1999/xlink" x="0px" y="0px"
	 viewBox="0 0 300 300" enable-background="new 0 0 300 300" xml:space="preserve">
<line fill="none" stroke="#E4EFED" stroke-width="9.0641" x1="98.8" y1="119" x2="87.2" y2="134"/>
<line fill="none" stroke="#E4EFED" stroke-width="9.0641" x1="156.7" y1="178.7" x2="131.3" y2="173.3"/>
<g>
	<rect x="69.3" y="117.8" fill="#E4EFED" width="5" height="2.5"/>
	<path fill="#E4EFED" d="M68.1,147.5v6.8c-3.6,0.8-6,2.6-6,4.9c0,3,4.2,5.3,9.9,5.3c5.6,0,9.9-2.3,9.9-5.3c0-2.3-2.5-4.2-6.2-4.9
		v-6.8h-1.3v10.3h1.3v-1.4c2.5,0.6,4.1,1.7,4.1,2.8c0,1.5-3.3,3.2-7.8,3.2c-4.5,0-7.8-1.7-7.8-3.2c0-1,1.5-2.1,3.9-2.7v1.3h1.3
		v-10.3H68.1z"/>
	<rect x="69.3" y="157.8" fill="#E4EFED" width="5" height="2.5"/>
	<path fill="#E4EFED" d="M75.6,129.6v-9.2h-1.3v20.9h-5v-20.9h-1.3v9.4c-17.3,0.8-32.4,5.1-42.7,11.5H2.3v29.9h7.6V145h73.7v-3.8
		h-7.9v-4.6c32.7,0.4,52.7,13.5,52.7,25.7c0,12.4-20.6,25.8-54.3,25.8c-33.7,0-54.3-13.3-54.3-25.8c0-5.1,3.5-10.4,9.9-14.8H17.4
		c-4.2,4.4-6.6,9.4-6.6,14.8c0,18.4,27.8,32.8,63.3,32.8c35.5,0,63.3-14.4,63.3-32.8C137.4,144.2,110.4,130,75.6,129.6z M68.1,136.7
		v4.5H42.7C49.8,138.8,58.3,137.2,68.1,136.7z"/>
</g>
<g>
	<rect x="215.8" y="138.7" fill="#E4EFED" width="5.7" height="2.9"/>
	<rect x="215.8" y="184.1" fill="#E4EFED" width="5.7" height="2.9"/>
	<path fill="#E4EFED" d="M214.4,172.4v7.7c-4.2,0.8-7.1,3-7.1,5.6c0,3.4,4.8,6,11.2,6s11.2-2.6,11.2-6c0-2.6-2.7-4.7-6.8-5.5v-7.7
		h-1.4v11.7h1.4v-1.5c2.7,0.7,4.4,1.9,4.4,3.1c0,1.7-3.8,3.6-8.8,3.6s-8.8-1.9-8.8-3.6c0-1.2,1.8-2.5,4.7-3.2v1.5h1.4v-11.7H214.4z"
		/>
	<path fill="#E4EFED" d="M269.1,165.3c-11.4-6.5-27.6-10.7-46.2-11.4v-12.3h-1.4v23.7h-5.7v-23.7h-1.4v12.2
		c-36.8,0.9-65.1,15.7-65.1,34.6c0,19.4,30.1,34.6,68.5,34.6c38.4,0,68.5-15.2,68.5-34.6c0-5.8-2.7-11.2-7.5-16h-14.1
		c7,4.5,11.1,10.1,11.1,16c0,14.7-24.9,27.1-58,27.1c-33.1,0-58-12.4-58-27.1c0-14.2,23.2-26.3,54.6-27.1v3.9h-8.9v4.3h83.5v29.6
		h8.6v-33.9H269.1z M222.9,161.4c9.3,0.4,17.9,1.8,25.3,3.9h-25.3V161.4z"/>
</g>
<g>
	<rect x="110.4" y="58.1" fill="#E4EFED" width="4.5" height="2.3"/>
	<rect x="110.4" y="94.1" fill="#E4EFED" width="4.5" height="2.3"/>
	<path fill="#E4EFED" d="M109.3,84.8v6.1c-3.3,0.7-5.6,2.4-5.6,4.4c0,2.7,3.8,4.8,8.9,4.8c5.1,0,8.9-2,8.9-4.8c0-2-2.2-3.7-5.4-4.4
		v-6.1h-1.1v9.3h1.1v-1.2c2.1,0.5,3.5,1.5,3.5,2.4c0,1.4-3,2.9-7,2.9c-4,0-7-1.5-7-2.9c0-0.9,1.5-2,3.7-2.5v1.2h1.1v-9.3H109.3z"/>
	<path fill="#E4EFED" d="M152.9,79.2c-9.3-4.6-22.3-7.4-36.9-7.7V60.4h-1.1v18.8h-4.5V60.4h-1.1v11.2c-27.6,1.2-48.5,11.8-48.5,25.3
		c0,14.2,23.5,25.4,53.5,25.4s53.5-11.1,53.5-25.4c0-4.4-2.2-8.5-6.2-12h-11c6.2,3.5,9.5,7.8,9.5,12c0,9.5-17.2,19.7-45.9,19.7
		s-45.9-10.2-45.9-19.7c0-8.9,15.2-18.5,40.8-19.6v1.9h-7.1v3.4h66.3V106h6.8V79.2H152.9z M116.1,77.2c7,0.1,13.2,0.8,18.7,2h-18.7
		V77.2z"/>
</g>
</svg>
