<?xml version="1.0" encoding="utf-8"?>
<!-- Generator: Adobe Illustrator 17.1.0, SVG Export Plug-In . SVG Version: 6.00 Build 0)  -->
<!DOCTYPE svg PUBLIC "-//W3C//DTD SVG 1.1//EN" "http://www.w3.org/Graphics/SVG/1.1/DTD/svg11.dtd">
<svg version="1.1" id="Layer_2" xmlns="http://www.w3.org/2000/svg" xmlns:xlink="http://www.w3.org/1999/xlink" x="0px" y="0px"
	 viewBox="0 0 300 300" enable-background="new 0 0 300 300" xml:space="preserve">
<g>
	<polygon fill="#E4EFED" points="183.8,114.9 198.7,125.8 198.7,239.6 220.9,239.6 220.9,91.7 	"/>
</g>
<polygon fill="#E4EFED" points="223.9,91.2 223.9,239.6 225.5,239.6 225.5,190.8 237.3,194.8 237.3,239.6 239.9,239.6 239.9,195.8 
	248.4,199 248.3,239.6 249.9,239.6 249.9,120.1 "/>
<polygon fill="#E4EFED" points="120.3,71.7 120.3,240.9 124.4,240.8 124.4,212.1 149.4,215.1 149.4,240.4 195.7,239.6 195.7,125.9 
	"/>
<path fill="#E4EFED" d="M57.1,135.9v103.3l3.1,0.1l0-19.1l5.5-1l-0.2,20.2l3.5,0.1l0.1-20.9l8.5-1.4l-0.1,22.5l5.2,0.1v-23.5
	l10.3-1.6L92.7,240l22.6,0.5V71.9L57.1,135.9z M71.6,152.5l-11.5,9.1l-0.2-15.5l12-11.5L71.6,152.5z M74.1,150.6l-0.2-17.7l9-8.8
	l0.8,19.2L74.1,150.6z M86.6,140.8l-0.7-19.4l12.4-11.8l0.3,21.9L86.6,140.8z M96.3,236.1v-22.2l15.9-2.6l0.1,24.8H96.3z
	 M101.1,129.6l-0.2-22.7l12-11.6l0.2,25.4L101.1,129.6z"/>
<path fill="none" d="M-52.3,253.2"/>
</svg>
