<?xml version="1.0" encoding="utf-8"?>
<!-- Generator: Adobe Illustrator 17.1.0, SVG Export Plug-In . SVG Version: 6.00 Build 0)  -->
<!DOCTYPE svg PUBLIC "-//W3C//DTD SVG 1.1//EN" "http://www.w3.org/Graphics/SVG/1.1/DTD/svg11.dtd">
<svg version="1.1" id="Layer_2" xmlns="http://www.w3.org/2000/svg" xmlns:xlink="http://www.w3.org/1999/xlink" x="0px" y="0px"
	 viewBox="0 0 300 300" enable-background="new 0 0 300 300" xml:space="preserve">
<g>
	<polygon fill="#E4EFED" points="211.6,178.4 210.8,144.4 157,177.7 154.8,143.7 107.3,175.5 104,94.4 86.8,94.4 84.5,253.6 
		212.3,254.3 	"/>
	<path fill="#E4EFED" d="M205.1,70.2c-5.1,3-3.9,4-20.2,8C194.2,78.2,202.9,76.4,205.1,70.2z"/>
	<path fill="#E4EFED" d="M170.1,79.5c6.8,0.9,13.7,0.1,19.7-1.4c-13-0.1-27.2-3.6-27.2-3.6c-41.1-32.9-71,13.1-71,13.1l22.4-15.3
		C131.4,61.6,168.3,75.1,170.1,79.5z"/>
</g>
</svg>
