<?xml version="1.0" encoding="utf-8"?>
<!-- Generator: Adobe Illustrator 17.1.0, SVG Export Plug-In . SVG Version: 6.00 Build 0)  -->
<!DOCTYPE svg PUBLIC "-//W3C//DTD SVG 1.1//EN" "http://www.w3.org/Graphics/SVG/1.1/DTD/svg11.dtd">
<svg version="1.1" id="Layer_2" xmlns="http://www.w3.org/2000/svg" xmlns:xlink="http://www.w3.org/1999/xlink" x="0px" y="0px"
	 viewBox="0 0 300 300" enable-background="new 0 0 300 300" xml:space="preserve">
<path fill="#E4EFED" d="M151.8,148.3"/>
<path fill="#E4EFED" d="M180.7,150.8V26.3l2.1-1.8l0.7-2.8c0,0-11.7-3.9-22.1-3.6l-5-0.7l0.4-4.3L151,7.6V5.4l-1.1,1.1l-1.2-1.2v2.4
	l-5.8,5.5l0.4,4.3l-5,0.7c-10.3-0.4-22.1,3.6-22.1,3.6l0.7,2.8l2.1,1.8v124.5c-19.8,4.4-33.2,12.9-33.2,22.7
	c0,14.3,28.7,25.9,64.1,25.9s64.1-11.6,64.1-25.9C214,163.7,200.5,155.2,180.7,150.8z M148.6,85.1l-0.2,22l-22-22H148.6z
	 M151.2,168.3h-2.8v-13.1h2.8V168.3z M149.7,152.5l-22.2-22.2l20.9-20.9l-0.1,9.8l-5.8,6.6l0,10.8l5.3,5.3l0.1,0.1v6.2l1.8,1.6
	l2-1.6v-6.2l5.4-5.4l0-10.8l-5.8-6.6l-0.1-10l20.9,20.9L149.7,152.5z M151.2,107L151,85.1V85h22.2L151.2,107z"/>
<g>
	<path fill="#E4EFED" d="M120.6,241.6c0,0,0.2-0.1,0.6-0.4c0.4-0.3,1-0.7,1.8-1.1c0.4-0.2,0.8-0.5,1.3-0.7c0.5-0.2,1-0.5,1.6-0.7
		c0.6-0.2,1.2-0.5,1.9-0.7c0.7-0.2,1.4-0.4,2.2-0.6c1.5-0.4,3.2-0.7,5.1-0.9c1.8-0.2,3.8-0.2,5.8,0c2,0.2,4.1,0.5,6.1,1.1
		c2.1,0.6,4.1,1.3,6.1,2.3c0.9,0.4,1.8,0.8,2.7,1.2c1,0.5,1.8,0.7,2.7,1c1.7,0.6,3.5,0.9,5.3,1.4c0.9,0.1,1.8,0.2,2.6,0.3
		c0.4,0.1,0.9,0.1,1.3,0.2c0.4,0,0.8,0,1.3,0c0.8,0,1.7,0.1,2.4,0.1c0.8,0,1.5-0.1,2.3-0.2c0.7-0.1,1.5-0.1,2.1-0.2
		c0.7-0.1,1.3-0.2,1.9-0.3c0.6-0.1,1.2-0.2,1.7-0.3c0.5-0.1,1-0.3,1.4-0.4c1.7-0.4,2.7-0.7,2.7-0.7s-0.8,0.6-2.4,1.5
		c-0.4,0.2-0.8,0.5-1.3,0.8c-0.5,0.2-1.1,0.5-1.6,0.7c-0.6,0.2-1.2,0.5-1.9,0.8c-0.7,0.3-1.4,0.4-2.2,0.6c-0.8,0.2-1.6,0.4-2.4,0.6
		c-0.9,0.1-1.7,0.2-2.7,0.3c-0.5,0.1-0.9,0.1-1.4,0.2c-0.5,0-0.9,0-1.4,0c-1,0-2,0-3-0.1c-2-0.3-4.1-0.5-6.2-1.2
		c-1-0.3-2.2-0.6-3.1-1c-1-0.4-1.9-0.8-2.9-1.2c-1.7-0.8-3.5-1.5-5.3-2.1c-1.8-0.5-3.6-1-5.4-1.3c-1.8-0.3-3.5-0.5-5.2-0.6
		c-1.7-0.1-3.3-0.1-4.7,0c-0.7,0.1-1.4,0.1-2.1,0.2c-0.7,0.1-1.3,0.2-1.9,0.2c-1.2,0.2-2.3,0.4-3.1,0.6c-0.9,0.2-1.6,0.4-2,0.5
		C120.8,241.5,120.6,241.6,120.6,241.6z"/>
</g>
<g>
	<path fill="#E4EFED" d="M140.1,217.2c0,0,0.3-0.4,0.8-0.9c0.2-0.3,0.6-0.6,1.1-0.9c0.2-0.2,0.5-0.3,0.8-0.5
		c0.3-0.1,0.6-0.3,0.9-0.4c0.3-0.1,0.6-0.3,1-0.4c0.3-0.1,0.7-0.2,1.1-0.3c0.8-0.2,1.6-0.2,2.4-0.2c0.8,0.1,1.7,0.1,2.6,0.3
		c0.9,0.2,1.7,0.6,2.6,0.9l1,0.4c0.4,0.2,0.6,0.3,0.9,0.4c0.5,0.2,1.1,0.4,1.7,0.6c0.6,0.1,1.2,0.3,1.8,0.4c0.3,0.1,0.6,0.1,0.9,0.2
		c0.3,0,0.6,0.1,0.8,0.1c0.5,0.1,1.1,0.1,1.5,0.1c0.2,0,0.5,0,0.7,0.1c0.2,0,0.4,0,0.6,0c0.7,0,1.2,0,1.2,0s-0.3,0.3-0.8,0.9
		c-0.1,0.1-0.3,0.3-0.5,0.4c-0.2,0.1-0.4,0.3-0.6,0.4c-0.4,0.3-1,0.6-1.6,0.9c-0.3,0.1-0.6,0.3-1,0.4c-0.3,0.1-0.7,0.2-1.1,0.3
		c-0.8,0.2-1.6,0.2-2.4,0.2c-0.9-0.1-1.7-0.1-2.7-0.4c-0.5-0.1-1-0.2-1.3-0.4l-1.2-0.5c-0.6-0.2-1.1-0.5-1.8-0.7
		c-0.6-0.3-1.2-0.4-1.8-0.6c-0.6-0.1-1.2-0.3-1.8-0.4c-0.6-0.1-1.2-0.2-1.7-0.3c-0.3,0-0.5-0.1-0.8-0.1c-0.2,0-0.5,0-0.7-0.1
		c-0.5,0-0.9-0.1-1.3-0.1C140.6,217.2,140.1,217.2,140.1,217.2z"/>
</g>
<g>
	<path fill="#E4EFED" d="M140.1,287.1c0,0,0.3-0.4,0.8-0.9c0.2-0.3,0.6-0.6,1.1-0.9c0.2-0.2,0.5-0.3,0.8-0.5
		c0.3-0.1,0.6-0.3,0.9-0.4c0.3-0.1,0.6-0.3,1-0.4c0.3-0.1,0.7-0.2,1.1-0.3c0.8-0.2,1.6-0.2,2.4-0.2c0.8,0.1,1.7,0.1,2.6,0.3
		c0.9,0.2,1.7,0.6,2.6,0.9l1,0.4c0.4,0.2,0.6,0.3,0.9,0.4c0.5,0.2,1.1,0.4,1.7,0.6c0.6,0.1,1.2,0.3,1.8,0.4c0.3,0.1,0.6,0.1,0.9,0.2
		c0.3,0,0.6,0.1,0.8,0.1c0.5,0.1,1.1,0.1,1.5,0.1c0.2,0,0.5,0,0.7,0.1c0.2,0,0.4,0,0.6,0c0.7,0,1.2,0,1.2,0s-0.3,0.3-0.8,0.9
		c-0.1,0.1-0.3,0.3-0.5,0.4c-0.2,0.1-0.4,0.3-0.6,0.4c-0.4,0.3-1,0.6-1.6,0.9c-0.3,0.1-0.6,0.3-1,0.4c-0.3,0.1-0.7,0.2-1.1,0.3
		c-0.8,0.2-1.6,0.2-2.4,0.2c-0.9-0.1-1.7-0.1-2.7-0.4c-0.5-0.1-1-0.2-1.3-0.4l-1.2-0.5c-0.6-0.2-1.1-0.5-1.8-0.7
		c-0.6-0.3-1.2-0.4-1.8-0.6c-0.6-0.1-1.2-0.3-1.8-0.4c-0.6-0.1-1.2-0.2-1.7-0.3c-0.3,0-0.5-0.1-0.8-0.1c-0.2,0-0.5,0-0.7-0.1
		c-0.5,0-0.9-0.1-1.3-0.1C140.6,287.1,140.1,287.1,140.1,287.1z"/>
</g>
<g>
	<path fill="#E4EFED" d="M120.6,262.7c0,0,0.2-0.1,0.6-0.4c0.4-0.3,1-0.7,1.8-1.1c0.4-0.2,0.8-0.5,1.3-0.7c0.5-0.2,1-0.5,1.6-0.7
		c0.6-0.2,1.2-0.5,1.9-0.7c0.7-0.2,1.4-0.4,2.2-0.6c1.5-0.4,3.2-0.7,5.1-0.9c1.8-0.2,3.8-0.2,5.8,0c2,0.2,4.1,0.5,6.1,1.1
		c2.1,0.6,4.1,1.3,6.1,2.3c0.9,0.4,1.8,0.8,2.7,1.2c1,0.5,1.8,0.7,2.7,1c1.7,0.6,3.5,0.9,5.3,1.4c0.9,0.1,1.8,0.2,2.6,0.3
		c0.4,0.1,0.9,0.1,1.3,0.2c0.4,0,0.8,0,1.3,0c0.8,0,1.7,0.1,2.4,0.1c0.8,0,1.5-0.1,2.3-0.2c0.7-0.1,1.5-0.1,2.1-0.2
		c0.7-0.1,1.3-0.2,1.9-0.3c0.6-0.1,1.2-0.2,1.7-0.3c0.5-0.1,1-0.3,1.4-0.4c1.7-0.4,2.7-0.7,2.7-0.7s-0.8,0.6-2.4,1.5
		c-0.4,0.2-0.8,0.5-1.3,0.8c-0.5,0.2-1.1,0.5-1.6,0.7c-0.6,0.2-1.2,0.5-1.9,0.8c-0.7,0.3-1.4,0.4-2.2,0.6c-0.8,0.2-1.6,0.4-2.4,0.6
		c-0.9,0.1-1.7,0.2-2.7,0.3c-0.5,0.1-0.9,0.1-1.4,0.2c-0.5,0-0.9,0-1.4,0c-1,0-2,0-3-0.1c-2-0.3-4.1-0.5-6.2-1.2
		c-1-0.3-2.2-0.6-3.1-1c-1-0.4-1.9-0.8-2.9-1.2c-1.7-0.8-3.5-1.5-5.3-2.1c-1.8-0.5-3.6-1-5.4-1.3c-1.8-0.3-3.5-0.5-5.2-0.6
		c-1.7-0.1-3.3-0.1-4.7,0c-0.7,0.1-1.4,0.1-2.1,0.2c-0.7,0.1-1.3,0.2-1.9,0.2c-1.2,0.2-2.3,0.4-3.1,0.6c-0.9,0.2-1.6,0.4-2,0.5
		C120.8,262.6,120.6,262.7,120.6,262.7z"/>
</g>
</svg>
