<?xml version="1.0" encoding="utf-8"?>
<!-- Generator: Adobe Illustrator 17.1.0, SVG Export Plug-In . SVG Version: 6.00 Build 0)  -->
<!DOCTYPE svg PUBLIC "-//W3C//DTD SVG 1.1//EN" "http://www.w3.org/Graphics/SVG/1.1/DTD/svg11.dtd">
<svg version="1.1" id="Layer_2" xmlns="http://www.w3.org/2000/svg" xmlns:xlink="http://www.w3.org/1999/xlink" x="0px" y="0px"
	 viewBox="0 0 300 300" enable-background="new 0 0 300 300" xml:space="preserve">
<g>
	<g>
		<path fill="#E4EFED" d="M250.3,187.4l-3.6-19.2c2-1,3.3-3,3.3-5.3c0-2.6-1.7-4.8-4-5.7L249.7,11l-3.5-0.1l-3.8,146.1
			c-2.6,0.7-4.5,3-4.5,5.8c0,3.1,2.3,5.6,5.2,5.9l3.6,19.2c0.6,3.8-1.7,7.2-5.1,7.8c-3.4,0.5-6.6-2.1-7.2-5.8l-3.4,0.5
			c0.8,5.1,5,8.8,9.8,8.8c0.5,0,1,0,1.4-0.1C247.7,198.3,251.3,193.1,250.3,187.4z M242.7,165.6c-1-0.5-1.7-1.5-1.7-2.8
			c0-1.1,0.6-2.1,1.5-2.6c0.5-0.3,1-0.5,1.6-0.5c0.7,0,1.3,0.2,1.9,0.7c0.7,0.6,1.2,1.4,1.2,2.4c0,0.9-0.4,1.7-1,2.2
			c-0.5,0.5-1.3,0.8-2.1,0.8C243.5,165.9,243.1,165.8,242.7,165.6z"/>
	</g>
	<path fill="#E4EFED" d="M218.5,199.9c0-0.4,24.3-11,24.2-11.4c-0.4-6.4-10.7-7.8-12.1-11.4c-1.9-5-11.9-11.6-11.9-11.6
		s-28.6-18.2-36.1-23.8c-7.5-5.6-29.9-10.1-56.3-3.8c-22.5,5.3-54.9,17.7-54.9,22.7c0,5,19.4,22.5,19.4,22.5s5.6,14.4-18.7-5.6
		c-24.3-20-41.6-8.3-41.6-8.3c11.3,7.8,18.6,15.6,20.2,20.9c1.5,5.3-11,15.5-14.1,18.6c-3.1,3.1,16,1.6,23.6,1.1
		c7.5-0.5,19.8-11.2,27-8c3.4,1.5-11.4,19-11.8,20.2c-0.4,1.1,28.7,17,41.9,18.3c7.4,0.7,22.1-1.5,31.6-6.5
		c8.4,0.8,17.5-1.9,17.5-1.9s-0.4,12.6-1.9,19.8c5.6,0.6,18.6-19.8,18.6-19.8s41.9-13,55-22.4c2.2-1.6,3.5-2.7,4.2-4.3
		C242.6,204.6,218.5,200.4,218.5,199.9z M210.6,184.2c-3.1,0-5.7-2.5-5.7-5.7c0-3.1,2.5-5.7,5.7-5.7s5.7,2.5,5.7,5.7
		C216.2,181.7,213.7,184.2,210.6,184.2z"/>
</g>
</svg>
