<?xml version="1.0" encoding="utf-8"?>
<!-- Generator: Adobe Illustrator 17.1.0, SVG Export Plug-In . SVG Version: 6.00 Build 0)  -->
<!DOCTYPE svg PUBLIC "-//W3C//DTD SVG 1.1//EN" "http://www.w3.org/Graphics/SVG/1.1/DTD/svg11.dtd">
<svg version="1.1" id="Layer_2" xmlns="http://www.w3.org/2000/svg" xmlns:xlink="http://www.w3.org/1999/xlink" x="0px" y="0px"
	 viewBox="0 0 300 300" enable-background="new 0 0 300 300" xml:space="preserve">
<g>
	<g>
		<ellipse fill="none" stroke="#E4EFED" stroke-width="3" stroke-miterlimit="10" cx="149.9" cy="136.6" rx="148.1" ry="46.1"/>
		<line fill="none" stroke="#E4EFED" stroke-width="3" stroke-miterlimit="10" x1="56" y1="172" x2="56" y2="194.4"/>
		<line fill="none" stroke="#E4EFED" stroke-width="3" stroke-miterlimit="10" x1="15.3" y1="155.8" x2="15.3" y2="178.1"/>
		<line fill="none" stroke="#E4EFED" stroke-width="3" stroke-miterlimit="10" x1="1.8" y1="136" x2="1.8" y2="158.3"/>
		<line fill="none" stroke="#E4EFED" stroke-width="3" stroke-miterlimit="10" x1="17.5" y1="115.5" x2="17.5" y2="137.9"/>
		<line fill="none" stroke="#E4EFED" stroke-width="3" stroke-miterlimit="10" x1="58.2" y1="100.5" x2="58.2" y2="122.2"/>
		<line fill="none" stroke="#E4EFED" stroke-width="3" stroke-miterlimit="10" x1="117" y1="91.2" x2="117" y2="113.6"/>
		<line fill="none" stroke="#E4EFED" stroke-width="3" stroke-miterlimit="10" x1="183" y1="91.2" x2="183" y2="113.6"/>
		<line fill="none" stroke="#E4EFED" stroke-width="3" stroke-miterlimit="10" x1="242.5" y1="100.8" x2="242.5" y2="123.2"/>
		<line fill="none" stroke="#E4EFED" stroke-width="3" stroke-miterlimit="10" x1="282.9" y1="115.8" x2="282.9" y2="138.2"/>
		<line fill="none" stroke="#E4EFED" stroke-width="3" stroke-miterlimit="10" x1="298.1" y1="136.2" x2="298.1" y2="158.6"/>
		<line fill="none" stroke="#E4EFED" stroke-width="3" stroke-miterlimit="10" x1="282.9" y1="156.6" x2="282.9" y2="179"/>
		<line fill="none" stroke="#E4EFED" stroke-width="3" stroke-miterlimit="10" x1="241" y1="172.7" x2="241" y2="195.1"/>
		<line fill="none" stroke="#E4EFED" stroke-width="3" stroke-miterlimit="10" x1="181.2" y1="181.9" x2="181.2" y2="204.3"/>
		<line fill="none" stroke="#E4EFED" stroke-width="3" stroke-miterlimit="10" x1="115.1" y1="180.8" x2="115.1" y2="203.2"/>
	</g>
	<path fill="none" stroke="#E4EFED" stroke-width="3" stroke-miterlimit="10" d="M298.1,158.3c-0.1,25.3-66.5,45.8-148.1,46.1
		C68.1,204.8,1.8,183.8,1.8,158.3s66.3-46.1,148.1-46.1S298.1,132.8,298.1,158.3z"/>
	<path fill="#E4EFED" d="M98.1,140.6c0-0.1,4.4-0.5,4.4-0.6c-0.1-1.8-2.9-3.1-3.3-4.1c-0.5-1.4-3.2-4.4-3.2-4.4s-7.8-5-9.9-6.5
		c-2-1.5-8.2-2.7-15.4-1c-6.1,1.5-15,4.8-15,6.2c0,1.4,5.3,6.1,5.3,6.1s1.5,3.9-5.1-1.5c-6.7-5.5-11.4-2.3-11.4-2.3
		c3.1,2.1,5.1,4.3,5.5,5.7c0.4,1.5-3,4.2-3.8,5.1c-0.9,0.9,4.4,0.4,6.4,0.3c2.1-0.1,5.4-3.1,7.4-2.2c0.9,0.4-3.1,5.2-3.2,5.5
		c-0.1,0.3,7.9,4.6,11.4,5c2,0.2,6-0.4,8.6-1.8c2.3,0.2,4.8-0.5,4.8-0.5s-0.1,3.4-0.5,5.4c1.5,0.2,5.1-5.4,5.1-5.4s11.5-3.6,15-6.2
		c0.6-0.4,0.9-1.1,1-1.5C102.4,141.9,98.1,140.8,98.1,140.6z M93.4,138c-1.1,0-2.1-0.9-2.1-2.1s0.9-2.1,2.1-2.1
		c1.1,0,2.1,0.9,2.1,2.1C95.5,137.1,94.6,138,93.4,138z"/>
	<path fill="#E4EFED" d="M166.4,163.7c0-0.1,5.1-0.6,5.1-0.7c-0.1-2-3.4-3.6-3.8-4.7c-0.6-1.6-3.8-5.2-3.8-5.2s-9.1-5.8-11.5-7.6
		c-2.4-1.8-9.5-3.2-17.9-1.2c-7.1,1.7-17.5,5.6-17.5,7.2c0,1.6,6.2,7.1,6.2,7.1s1.8,4.6-6-1.8c-7.7-6.4-13.2-2.6-13.2-2.6
		c3.6,2.5,5.9,5,6.4,6.7c0.5,1.7-3.5,4.9-4.5,5.9c-1,1,5.1,0.5,7.5,0.4c2.4-0.1,6.3-3.6,8.6-2.5c1.1,0.5-3.6,6.1-3.8,6.4
		c-0.1,0.4,9.1,5.4,13.3,5.8c2.3,0.2,7-0.5,10-2.1c2.7,0.2,5.6-0.6,5.6-0.6s-0.1,4-0.6,6.3c1.8,0.2,5.9-6.3,5.9-6.3
		s13.3-4.2,17.5-7.2c0.7-0.5,1-1.2,1.2-1.7C171.4,165.2,166.4,163.9,166.4,163.7z M160.9,160.7c-1.3,0-2.4-1.1-2.4-2.4
		s1.1-2.4,2.4-2.4c1.3,0,2.4,1.1,2.4,2.4S162.3,160.7,160.9,160.7z"/>
	<path fill="#E4EFED" d="M256.3,145.6c0-0.1,4.2-0.5,4.2-0.6c-0.1-1.7-2.8-2.9-3.1-3.9c-0.5-1.3-3.1-4.2-3.1-4.2s-7.4-4.7-9.4-6.2
		c-1.9-1.5-7.8-2.6-14.6-1c-5.8,1.4-14.3,4.6-14.3,5.9c0,1.3,5,5.8,5,5.8s1.5,3.7-4.9-1.5c-6.3-5.2-10.8-2.2-10.8-2.2
		c2.9,2,4.8,4,5.2,5.4c0.4,1.4-2.8,4-3.7,4.8c-0.8,0.8,4.2,0.4,6.1,0.3c2-0.1,5.1-2.9,7-2.1c0.9,0.4-3,4.9-3.1,5.2
		c-0.1,0.3,7.5,4.4,10.9,4.7c1.9,0.2,5.7-0.4,8.2-1.7c2.2,0.2,4.5-0.5,4.5-0.5s-0.1,3.3-0.5,5.1c1.5,0.2,4.8-5.1,4.8-5.1
		s10.9-3.4,14.3-5.8c0.6-0.4,0.8-1,1-1.4C260.3,146.8,256.3,145.7,256.3,145.6z M251.8,143.1c-1.1,0-1.9-0.9-1.9-1.9
		c0-1.1,0.9-1.9,1.9-1.9c1.1,0,1.9,0.9,1.9,1.9C253.8,142.2,252.9,143.1,251.8,143.1z"/>
</g>
</svg>
