<?xml version="1.0" encoding="utf-8"?>
<!-- Generator: Adobe Illustrator 17.1.0, SVG Export Plug-In . SVG Version: 6.00 Build 0)  -->
<!DOCTYPE svg PUBLIC "-//W3C//DTD SVG 1.1//EN" "http://www.w3.org/Graphics/SVG/1.1/DTD/svg11.dtd">
<svg version="1.1" id="Layer_2" xmlns="http://www.w3.org/2000/svg" xmlns:xlink="http://www.w3.org/1999/xlink" x="0px" y="0px"
	 viewBox="0 0 300 300" enable-background="new 0 0 300 300" xml:space="preserve">
<g>
	<path fill="#E4EFED" d="M126.3,82.2c4.6-3.9,17.1,12.2,17.1,12.2s-3.1-10.5-8.5-16.5c-5.4-6-12.2-6.4-14.2-5.2
		c-4.1,2.3-4.1,7.2-3,8.4S122.3,85.6,126.3,82.2z"/>
	<path fill="#E4EFED" d="M133.8,94.5c-5.6-2.6-10.1,0.5-11,2.6c-1.9,4.1-0.2,8.4,0.9,8.9c1.1,0.5,4.5,1.6,6-3.3
		c1.6-5.7,15.2,2.1,15.2,2.1S139.4,97.1,133.8,94.5z"/>
	<path fill="#E4EFED" d="M167.1,82.2c4,3.4,7.5,0.1,8.6-1.1s1.1-6.1-3-8.4c-2.1-1.1-8.8-0.8-14.2,5.2c-5.4,6-8.5,16.5-8.5,16.5
		S162.5,78.3,167.1,82.2z"/>
	<path fill="#E4EFED" d="M159.5,94.5c-5.6,2.6-11.1,10.3-11.1,10.3s13.6-7.9,15.2-2.1c1.4,5,4.8,3.8,6,3.3c1.1-0.5,2.8-4.8,0.9-8.9
		C169.6,95.1,165.1,92,159.5,94.5z"/>
	<path fill="#E4EFED" d="M146.5,84.3l1.1-9.3c0,0,8.2-30.4-1-31.5c-5-0.6-4.3,10.9-3.8,13.8C143.3,59.3,146.5,84.3,146.5,84.3z"/>
	<path fill="#E4EFED" d="M179,261.1l6.8-2.9l-27.9-133.9l6.7-2.4l-0.1-4.4l-17.9-5.8l-17.9,5.7l-0.1,3.3l6.7,3.5L107.4,258l6.8,2.9
		l0.8-4.7l26.1,10.6l-0.1,4.4l5.6,1.7v-1l0,1.2l5.6-1.7l-0.1-4.4l26.1-10.6L179,261.1z M127,187.9l15.7,8l-0.2,9.3l-20.4,10.6
		L127,187.9z M141.9,231l-19-8.4l19.4-10.9L141.9,231z M137.6,236.1l-20.6,8.3l2.8-15.8L137.6,236.1z M142.9,190.1l-0.1-0.7
		l-14.9-6.9l0.2-1.4l15.1-7.1L142.9,190.1z M129.3,174.8l4.4-25l10,3.9l-0.3,14.6L129.3,174.8z M138,125.4l6.3,2.2l-0.5,19.9
		l-9.1-3.7l-0.1,0.3L138,125.4z M117.5,251l24.2-10.7l-0.5,20.6L117.5,251z M150.8,211.9l19.4,10.9l-19,8.4L150.8,211.9z
		 M150.6,205.3l-0.2-9.3l15.7-8l4.9,27.9L150.6,205.3z M149.5,153.9l10-3.9l4.4,25l-14.1-6.4L149.5,153.9z M165,181.2l0.2,1.4
		l-14.9,6.9l-0.1,0.7l-0.4-16.1L165,181.2z M173.4,228.8l2.8,15.8l-20.6-8.3L173.4,228.8z M155.2,125.5l3.3,18.7l-0.1-0.3l-9.1,3.7
		l-0.5-19.9L155.2,125.5z M151.4,240.4l24.2,10.7l-23.8,9.9L151.4,240.4z"/>
</g>
</svg>
