<?xml version="1.0" encoding="utf-8"?>
<!-- Generator: Adobe Illustrator 17.1.0, SVG Export Plug-In . SVG Version: 6.00 Build 0)  -->
<!DOCTYPE svg PUBLIC "-//W3C//DTD SVG 1.1//EN" "http://www.w3.org/Graphics/SVG/1.1/DTD/svg11.dtd">
<svg version="1.1" id="Layer_2" xmlns="http://www.w3.org/2000/svg" xmlns:xlink="http://www.w3.org/1999/xlink" x="0px" y="0px"
	 viewBox="0 0 300 300" enable-background="new 0 0 300 300" xml:space="preserve">
<line fill="none" stroke="#E4EFED" stroke-width="3.3013" stroke-miterlimit="10" x1="113.1" y1="177" x2="113.1" y2="166.3"/>
<g>
	<path fill="#E4EFED" d="M75.7,268.2h15.9l3.1-39.2H97l3,39.2h21.5v-39.2h2.9v39.2h16.8l14.4-20.5l3.1,20.5h4.5l-3.8-24.8l17.1,24.8
		h18.4v-1.7l3.7-10.2l8.2,11.9h5.4l-11.7-17l8.3-23h3.1l9.5,40h21.5v-41.5h21.3v-4.9h-15.4v-5.2h-5.8v-8.8h-14.6v-7.9v-7.5H219
		v-22.9h-2.9v22.9h-11.7v7.5h-14.2v-29.2h-65.4v5.4H74.2l-0.3-0.3l-0.4,0.3H55.7v6.3h18.1l9.8,11.4v17.9l-7.9-0.2v0.4h-2.5v4.2H54.8
		v3.8l20.8,8.3V268.2z M224.9,228.2v36.1l-8.5-36.1H224.9z M194.9,228.2h9.1l-6.7,18.5l-2.4-3.5V228.2z M194.9,251l0.6,0.9l-0.6,1.6
		V251z M179,229.1v-0.4h1.7v37.9l-19-27.5l6.9-9.9H179z M163.3,229.1l-4.2,6.1l-1.1-1.6l-0.7-4.4H163.3z M149.5,229.1l4.2,6.1
		l0.9,6.2l-11.8,16.9l5.6-29.3H149.5z M140.3,229.1h3.6l-3.6,18.9V229.1z M79.6,182.4h27.3v6.3H85L79.6,182.4z M75.5,221.1h0.2v0.7
		L75.5,221.1z"/>
	<line fill="none" stroke="#E4EFED" stroke-width="2.2009" stroke-miterlimit="10" x1="217" y1="168.6" x2="235.3" y2="134.4"/>
	<polyline fill="none" stroke="#E4EFED" stroke-width="1.1004" stroke-miterlimit="10" points="235.3,134.4 214,158.6 215.8,168.3 	
		"/>
	<polyline fill="none" stroke="#E4EFED" stroke-width="1.1004" stroke-miterlimit="10" points="101.5,119.4 117.8,157.8 
		113.4,165.6 	"/>
	<line fill="none" stroke="#E4EFED" stroke-width="2.2009" stroke-miterlimit="10" x1="110.3" y1="168.2" x2="101.5" y2="119"/>
	<rect x="109" y="165.3" fill="#E4EFED" width="10" height="4.9"/>
	<path fill="none" stroke="#E4EFED" stroke-width="3.3013" stroke-miterlimit="10" d="M113.1,165.3"/>
	<path fill="none" stroke="#E4EFED" stroke-width="3.3013" stroke-miterlimit="10" d="M113.1,176"/>
	<g>
		<path fill="#E4EFED" d="M158.4,175.9l2.2-1.2v-6.1h10.8l0.9,9.1l2.6-2.1L162.8,70.7l0.8-2.6l0-3.9l-5.1-3.4l-5.1,3.3l0,3.9
			l0.8,2.6l-1.5,14h-0.1v1.3l-5.9,55.6l-0.2-0.1l0,2.1l-2.4,22.5h-0.1v0.7l-0.6,5.4l2.6,2.1l0.5-5.7h9.9v6L158.4,175.9 M148.3,147.4
			l7.1,3l-7.9,5.9L148.3,147.4z M156.2,166.1h-9.7l0.4-4l9.3-8.2V166.1z M156.2,147.6l-0.1-1.8l-7.4-3.3l0-0.5l7.5-8.4V147.6z
			 M156.2,127.5l-6.9,8.3l1-10.7h5.9V127.5z M156.2,122.6h-5.7l0.4-4.8l5.3,3.2V122.6z M156.2,117.8l-5-3.7l0.4-4.3l4.6-4V117.8z
			 M156.2,102l-4.2,4l0.7-7.4l3.5,1.1V102z M156.2,96.6l-3.2-1.1l-0.2,1.1l0.9-9.6h2.5V96.6z M156.2,84.6H154l1.1-12.3h1.2V84.6z
			 M170.2,157l-8.7-6.6l7.7-3.3L170.2,157z M160.5,87.1h2.4v-2.5h-2.4V72.4h1.2l2.3,22.9l-3.5,1.4V87.1z M160.5,99.6l3.7-1.4
			l0.8,8.2l-4.6-4.3V99.6z M160.5,106l5,4.4l0.4,3.7l-5.3,3.9V106z M160.5,121.1l5.7-3.5l0.5,4.9h-6.2V121.1z M160.5,125.1h6.3v-1.4
			l1.3,13.1l-7.6-9.1V125.1z M160.5,133.8l7.8,8.8l-7.8,3.5V133.8z M160.5,166.1V154l10.3,9l0.3,3H160.5z"/>
		<rect x="211.3" y="168.3" fill="#E4EFED" width="9.4" height="3.6"/>
	</g>
</g>
</svg>
