<?xml version="1.0" encoding="utf-8"?>
<!-- Generator: Adobe Illustrator 17.1.0, SVG Export Plug-In . SVG Version: 6.00 Build 0)  -->
<!DOCTYPE svg PUBLIC "-//W3C//DTD SVG 1.1//EN" "http://www.w3.org/Graphics/SVG/1.1/DTD/svg11.dtd">
<svg version="1.1" id="Layer_2" xmlns="http://www.w3.org/2000/svg" xmlns:xlink="http://www.w3.org/1999/xlink" x="0px" y="0px"
	 viewBox="0 0 300 300" enable-background="new 0 0 300 300" xml:space="preserve">
<g>
	<g>
		<g>
			<path fill="#E4EFED" d="M150.9,100.3c-27.8,0-50.3,22.6-50.3,50.4c0,13.5,5.2,26.1,14.7,35.6c9.5,9.5,22.2,14.7,35.6,14.7
				c27.8,0,50.4-22.6,50.4-50.4C201.2,122.9,178.6,100.3,150.9,100.3z"/>
			<path fill="#E4EFED" d="M210.5,166.6c1.6-5.9,16.8-10.1,26-16c-9.2-5.9-24.4-10.1-26-16c-1.6-5.9,9.5-17.2,14.5-26.9
				c-10.9-0.5-26.2,3.5-30.5-0.8c-4.3-4.3-0.3-19.6-0.8-30.5c-9.7,5-21,16.1-26.9,14.5c-5.9-1.6-10.1-16.8-16-26
				c-5.9,9.2-10.1,24.4-16,26c-5.9,1.6-17.2-9.5-26.9-14.5c-0.5,10.9,3.5,26.2-0.8,30.5c-4.3,4.3-19.6,0.3-30.5,0.8
				c5,9.7,16.1,21,14.5,26.9c-1.6,5.9-16.8,10.1-26,16c9.2,5.9,24.4,10.1,26,16c1.6,5.9-9.5,17.2-14.5,26.8
				c10.9,0.5,26.2-3.5,30.5,0.8c4.3,4.3,0.3,19.6,0.8,30.5c9.7-5,21-16.1,26.9-14.5c5.9,1.6,10.1,16.8,16,26
				c5.9-9.2,10.1-24.4,16-26c5.9-1.6,17.2,9.5,26.9,14.5c0.5-10.9-3.5-26.2,0.8-30.5c4.3-4.3,19.6-0.3,30.5-0.8
				C220.1,183.8,208.9,172.5,210.5,166.6z M150.9,209.5c-15.7,0-30.5-6.1-41.6-17.2C98.1,181.1,92,166.4,92,150.7
				c0-32.4,26.4-58.8,58.8-58.8c32.4,0,58.8,26.4,58.8,58.8C209.7,183.1,183.3,209.5,150.9,209.5z"/>
		</g>
	</g>
</g>
</svg>
