<?xml version="1.0" encoding="utf-8"?>
<!-- Generator: Adobe Illustrator 18.0.0, SVG Export Plug-In . SVG Version: 6.00 Build 0)  -->
<!DOCTYPE svg PUBLIC "-//W3C//DTD SVG 1.1//EN" "http://www.w3.org/Graphics/SVG/1.1/DTD/svg11.dtd">
<svg version="1.1" id="Layer_2" xmlns="http://www.w3.org/2000/svg" xmlns:xlink="http://www.w3.org/1999/xlink" x="0px" y="0px"
	 viewBox="0 0 612 792" enable-background="new 0 0 612 792" xml:space="preserve">
<g>
	<g>
		<g>
			<path fill="none" stroke="#E4EFED" d="M467.8,213.8c-3.8-9.7-7.5-19.4-11-29.2c-2.3-7.2-4.4-14.3-6.7-21.5
				c3.4,3.5,6.8,7,10.3,10.6c-1,3.7-2,7.4-3.1,11.1c6.8,10,13.9,19.8,21.1,29.5c5.1-16.3,9.5-32.7,13.6-49.2
				c-3.5,3.1-7,6.2-10.6,9.2c1.7,3.6,3.4,7.2,5.1,10.7C480.6,194.8,474.4,204.4,467.8,213.8c-2.6,12.1-5.4,24.2-8.2,36.3
				c7.5-6.8,14.9-13.7,22.1-20.9C477.1,224.1,472.4,219,467.8,213.8"/>
			<path fill="none" stroke="#E4EFED" d="M478.5,214.3c2.8,12.6,5.6,25.1,8.4,37.7c-7.3-7.8-14.8-15.6-22.1-23.4
				C469.5,223.8,474,219.1,478.5,214.3z"/>
			<path fill="none" stroke="#E4EFED" d="M467.8,213.8c4.2,0.2,6.4,0.3,10.6,0.5"/>
			<path fill="none" stroke="#E4EFED" d="M462.8,236.8c7,0.5,13.9,0.9,20.9,1.3"/>
			<path fill="none" stroke="#E4EFED" d="M464.8,228.5c5.6,0.3,11.3,0.5,16.9,0.7"/>
			<path fill="none" stroke="#E4EFED" d="M476.8,223.8c1.1-1.4,1.6-2.1,2.7-3.5c-4.2-0.2-8.4-0.4-12.6-0.6c1.1,1.5,1.7,2.3,2.8,3.8"
				/>
			<path fill="none" stroke="#E4EFED" d="M455.7,180.8c1.4-1.3,2.1-2,3.5-3.3c-2.2-1.7-3.3-2.5-5.5-4.1c1-1.7,1.5-2.5,2.4-4.2"/>
			<path fill="none" stroke="#E4EFED" d="M472.8,206.7c-2.9-0.1-4.4-0.2-7.3-0.3c1.4-1.8,2.1-2.8,3.4-4.6c-2.3-0.3-3.5-0.4-5.8-0.7
				c0.8-1.9,1.3-2.8,2.1-4.7c-2-1-3-1.5-4.9-2.5c0.2-1.5,0.3-2.3,0.5-3.8"/>
			<path fill="none" stroke="#E4EFED" d="M487.1,169.5c1,2,1.5,3,2.5,5c-2.3,1.6-3.4,2.4-5.8,4c1.6,1,2.4,1.6,4.1,2.6"/>
			<path fill="none" stroke="#E4EFED" d="M473,206.7c3,0,4.5,0.1,7.5,0.2c-1.5-2.2-2.3-3.3-3.8-5.5c2.1,0,3.3,0.1,5.4,0.1
				c-1-2-1.5-2.9-2.6-4.9c2-1.2,2.9-1.8,4.8-3c-0.2-1.6-0.3-2.4-0.5-4"/>
		</g>
	</g>
	<g>
		<g>
			<path fill="none" stroke="#E4EFED" d="M475.5,213.8c3.8-9.7,7.5-19.4,11-29.2c2.3-7.2,4.4-14.3,6.7-21.5
				c-3.4,3.5-6.8,7-10.3,10.6c1,3.7,2,7.4,3.1,11.1c-6.8,10-13.9,19.8-21.1,29.5c-5.1-16.3-9.5-32.7-13.6-49.2
				c3.5,3.1,7,6.2,10.6,9.2c-1.7,3.6-3.4,7.2-5.1,10.7C462.7,194.8,469,204.4,475.5,213.8c2.6,12.1,5.4,24.2,8.2,36.3
				c-7.5-6.8-14.9-13.7-22.1-20.9C466.3,224.1,470.9,219,475.5,213.8"/>
			<path fill="none" stroke="#E4EFED" d="M464.8,214.3c-2.8,12.6-5.6,25.1-8.4,37.7c7.3-7.8,14.8-15.6,22.1-23.4
				C473.9,223.8,469.3,219.1,464.8,214.3z"/>
			<path fill="none" stroke="#E4EFED" d="M475.5,213.8c-4.2,0.2-6.4,0.3-10.6,0.5"/>
			<path fill="none" stroke="#E4EFED" d="M480.5,236.8c-7,0.5-13.9,0.9-20.9,1.3"/>
			<path fill="none" stroke="#E4EFED" d="M478.6,228.5c-5.6,0.3-11.3,0.5-16.9,0.7"/>
			<path fill="none" stroke="#E4EFED" d="M466.5,223.8c-1.1-1.4-1.6-2.1-2.7-3.5c4.2-0.2,8.4-0.4,12.6-0.6c-1.1,1.5-1.7,2.3-2.8,3.8
				"/>
			<path fill="none" stroke="#E4EFED" d="M487.6,180.8c-1.4-1.3-2.1-2-3.5-3.3c2.2-1.7,3.3-2.5,5.5-4.1c-1-1.7-1.5-2.5-2.4-4.2"/>
			<path fill="none" stroke="#E4EFED" d="M470.6,206.7c2.9-0.1,4.4-0.2,7.3-0.3c-1.4-1.8-2.1-2.8-3.4-4.6c2.3-0.3,3.5-0.4,5.8-0.7
				c-0.8-1.9-1.3-2.8-2.1-4.7c2-1,3-1.5,4.9-2.5c-0.2-1.5-0.3-2.3-0.5-3.8"/>
			<path fill="none" stroke="#E4EFED" d="M456.3,169.5c-1,2-1.5,3-2.5,5c2.3,1.6,3.4,2.4,5.8,4c-1.6,1-2.4,1.6-4.1,2.6"/>
			<path fill="none" stroke="#E4EFED" d="M470.4,206.7c-3,0-4.5,0.1-7.5,0.2c1.5-2.2,2.3-3.3,3.8-5.5c-2.1,0-3.3,0.1-5.4,0.1
				c1-2,1.5-2.9,2.6-4.9c-2-1.2-2.9-1.8-4.8-3c0.2-1.6,0.3-2.4,0.5-4"/>
		</g>
	</g>
	<g>
		<polygon fill="none" stroke="#E4EFED" points="434.6,173.4 452,169 489.3,168.8 509,173.6 		"/>
		<polyline fill="none" stroke="#E4EFED" points="460.3,173.7 463.5,169.2 466.7,173.6 		"/>
		<polyline fill="none" stroke="#E4EFED" points="467.3,173.7 470.6,169.2 473.7,173.6 		"/>
		<polyline fill="none" stroke="#E4EFED" points="474,173.7 477.2,169.2 480.4,173.6 		"/>
		<polyline fill="none" stroke="#E4EFED" points="452,169 446.1,173.3 442.7,171.4 		"/>
		<polyline fill="none" stroke="#E4EFED" points="489.3,168.8 495.3,173.4 500.1,171.5 		"/>
	</g>
</g>
</svg>
