<?xml version="1.0" encoding="utf-8"?>
<!-- Generator: Adobe Illustrator 17.1.0, SVG Export Plug-In . SVG Version: 6.00 Build 0)  -->
<!DOCTYPE svg PUBLIC "-//W3C//DTD SVG 1.1//EN" "http://www.w3.org/Graphics/SVG/1.1/DTD/svg11.dtd">
<svg version="1.1" id="Layer_2" xmlns="http://www.w3.org/2000/svg" xmlns:xlink="http://www.w3.org/1999/xlink" x="0px" y="0px"
	 viewBox="0 0 300 300" enable-background="new 0 0 300 300" xml:space="preserve">
<g>
	<path fill="#E4EFED" d="M142.7,138.9c5.7,0,5.7-1,5.7-4.8s0-4.8-5.7-4.8c-5.7,0-5.7,1-5.7,4.8S136.9,138.9,142.7,138.9z"/>
	<path fill="#E4EFED" d="M142.7,141.8c-5.2,0-5.9,0.6-5.9,5.1s0.7,5.1,5.9,5.1c5.3,0,5.9-0.5,5.9-5.1
		C148.6,142.3,147.9,141.8,142.7,141.8z"/>
	<path fill="#E4EFED" d="M211.4,170.2c-3.3-10.1-9.5-20-10.4-29.5c-0.6-6,0-27.4,0-41.1c0-4.2,0.9-10.3-0.4-13.7
		c-1.5-4.2-15.6-13.1-19.9-15.4v-0.1c0-0.1,0-0.1,0-0.2c0-0.1,0-0.2,0-0.1c-0.1-1.5-1.4-2.7-3-2.7h-68.4c-1.7,0-3,1.3-3,3v151.5
		H82.7v10.4h121.7v-10.4h-23.7V120.3c0.1,0,0.3,0,0.4,0c0,0.1,0,0.3,0,0.4c0.7,0,1.4,0,2.1,0c-0.1,10-0.3,19.9-0.4,29.9
		c0,4.3,0.4,9.6,0.4,13.3c0.1,8.4-1,14.2,2.5,19.5c3.8,5.7,14.8,9,22,4.2C212.4,184.4,213.7,177.2,211.4,170.2z M130.3,129.9h-12.1
		v8.9h11.5v3.1h-11.5v9.9h12.1v3.1h-15.1v-28h15.2V129.9z M142.7,155.1c-6.4,0-9-0.7-9-7.9c0-3.8,0.3-5.8,3.1-6.9
		c-2.3-1-2.7-3-2.7-6.2V133c0-5.6,2-6.5,8.6-6.5c6.6,0,8.6,0.9,8.6,6.5v1.1c0,3.2-0.4,5.2-2.7,6.2c2.8,1.1,3.1,3.1,3.1,6.9
		C151.6,154.4,149,155.1,142.7,155.1z M163.6,155.1c-7.5,0-8.6-3.1-8.6-6.4v-2.3h2.9v0.2c0,4.6,0.4,5.3,5.9,5.3c5.6,0,5.8-1,5.8-6.7
		c0-5,0-6.7-5.9-6.7c-3.7,0-4.7,0.3-5.4,2.3l0,0.1h-2.6v-14.2h16.2v2.9h-13.1v7.7c1.4-1.6,2.9-1.8,5.8-1.8c7,0,8.3,2.6,8.3,9.8
		C172.7,153.9,170.8,155.1,163.6,155.1z M173.3,118.4c0,1.7-1.5,3-3.3,3h-52.8c-1.9,0-3.3-1.4-3.3-3V77.8c0-1.7,1.5-3,3.3-3h52.8
		c1.9,0,3.3,1.4,3.3,3V118.4z M202.3,181.8c-2,0.5-4.7,1-7.1,0c-4.5-1.6-3.6-6.8-4.4-12c-1.8-11.6-0.2-26.5-0.2-38.7
		c0-3.5,1.1-12.7,0-14.5c-0.2-2-0.7-1.8-1.2-3.3c-3.2-0.8-4.2-1.3-8.3-1.2c0-10.9,0-21.9,0-32.8c0.7,0.4,1.4,0.8,2.1,1.2
		c0,4.6,0,9.1,0,13.7c3.3,0,6.6,0,10,0c0,10.9,0.4,22.5,0.4,32.8c0,6.3-0.5,13.7,0.6,19.5c1,5,2.4,10.1,4.3,14.6
		c2.4,5.5,5.9,10.4,5.8,18.3C204,180.4,203.8,180.8,202.3,181.8z"/>
</g>
</svg>
