<?xml version="1.0" encoding="utf-8"?>
<!-- Generator: Adobe Illustrator 17.1.0, SVG Export Plug-In . SVG Version: 6.00 Build 0)  -->
<!DOCTYPE svg PUBLIC "-//W3C//DTD SVG 1.1//EN" "http://www.w3.org/Graphics/SVG/1.1/DTD/svg11.dtd">
<svg version="1.1" id="Layer_2" xmlns="http://www.w3.org/2000/svg" xmlns:xlink="http://www.w3.org/1999/xlink" x="0px" y="0px"
	 viewBox="0 0 300 300" enable-background="new 0 0 300 300" xml:space="preserve">
<g>
	<path fill="none" stroke="#E4EFED" stroke-width="5.7293" stroke-miterlimit="10" d="M207.9,130.8c0-31.6-25.6-57.3-57.3-57.3
		c-31.6,0-57.3,25.7-57.3,57.3c0,24.7,15.7,45.7,37.6,53.7v19.7c0,5.7,4.3,10.3,9.6,10.3h26.7c5.3,0,9.6-4.6,9.6-10.3v-22.5
		C195.3,172.2,207.9,153,207.9,130.8z"/>
	<path fill="#E4EFED" d="M173.3,226.4c0,1.9-1.9,3.4-4.3,3.4H138c-2.4,0-4.3-1.5-4.3-3.4l0,0c0-1.9,1.9-3.4,4.3-3.4H169
		C171.4,223.1,173.3,224.6,173.3,226.4L173.3,226.4z"/>
	<path fill="#E4EFED" d="M169,235.8H138c-2.4,0-4.3,1.5-4.3,3.4c0,1.9,1.9,3.4,4.3,3.4h8.8c-0.1-0.3-0.7-0.6-0.7-0.3
		c0.1,3.3,2.6,6.1,7.5,6.1c4.9,0,8.1-2.7,8.1-6.1c0-0.9-0.5-0.3-1,0.3h8.3c2.4,0,4.3-1.5,4.3-3.4C173.3,237.3,171.4,235.8,169,235.8
		z"/>
	<text transform="matrix(1 0 0 1 123.0889 163.7352)" fill="#E4EFED" font-family="'Eurostile-Bold'" font-size="78.6783">$</text>
</g>
</svg>
