<?xml version="1.0" encoding="utf-8"?>
<!-- Generator: Adobe Illustrator 17.1.0, SVG Export Plug-In . SVG Version: 6.00 Build 0)  -->
<!DOCTYPE svg PUBLIC "-//W3C//DTD SVG 1.1//EN" "http://www.w3.org/Graphics/SVG/1.1/DTD/svg11.dtd">
<svg version="1.1" id="Layer_2" xmlns="http://www.w3.org/2000/svg" xmlns:xlink="http://www.w3.org/1999/xlink" x="0px" y="0px"
	 viewBox="0 0 300 300" enable-background="new 0 0 300 300" xml:space="preserve">
<g>
	<path fill="#E4EFED" d="M174.1,116c0,0,9.1,9.5,9.6,10.5c0.5,1,2.6-0.2,4.9,1.5c2.4,1.7,25.2,40.1,25.6,40.7
		c1.2,1.9-1.3,4.5-2.7,2.9c-1.4-1.5-40.1-52.3-40.1-52.3S173.4,115.6,174.1,116z"/>
	<path fill="#E4EFED" d="M169.9,111.9c0,0,4.7-12,5.3-12.8s-1.1-2.1-0.5-4.8c0.6-2.8,24.1-39.1,24.5-39.7c1.1-1.8,4.1-0.9,3.3,1
		c-0.8,1.9-29,57.2-29,57.2S169.8,112.7,169.9,111.9z"/>
	<path fill="#E4EFED" d="M167.5,116.3c0,0-13.7,3.1-14.8,3c-1.1,0-1.3,2.3-4,3.3c-2.7,1-47.4,0.6-48.2,0.7c-2.2,0.1-3-2.9-1-3.3
		c2-0.4,67.5-8.1,67.5-8.1S168.2,115.9,167.5,116.3z"/>
	<path fill="#E4EFED" d="M177,118.3v-6.9c0-1.3-0.9-2.4-1.9-2.4h-7.1c-1.1,0-1.9,1.1-1.9,2.4v6.9c0,1.2,0.7,2.2,1.7,2.4l-1.2,122h10
		l-1.2-122C176.2,120.5,177,119.5,177,118.3z"/>
</g>
<g>
	<path fill="#E4EFED" d="M259.7,101.9c0,0,4.6,10,4.7,10.9c0.1,0.9,2.1,0.5,3.5,2.5c1.4,2,8.8,38.5,8.9,39.1
		c0.4,1.8-2.3,3.2-2.9,1.6c-0.7-1.6-17.2-52.2-17.2-52.2S259.2,101.4,259.7,101.9z"/>
	<path fill="#E4EFED" d="M257.5,97.6c0,0,7-8.1,7.7-8.6c0.7-0.5-0.3-1.9,1-3.9c1.2-2,29.8-24.1,30.2-24.5c1.4-1.1,3.4,0.4,2.3,1.7
		c-1.1,1.3-38.6,37-38.6,37S257.2,98.2,257.5,97.6z"/>
	<path fill="#E4EFED" d="M254.3,100.3c0,0-11.6-1.4-12.5-1.7c-0.8-0.3-1.7,1.5-4.1,1.5c-2.4,0.1-37.5-12.6-38.1-12.7
		c-1.7-0.5-1.6-3.1,0.1-2.9c1.7,0.3,55.3,12.3,55.3,12.3S255,100.2,254.3,100.3z"/>
	<path fill="#E4EFED" d="M260.6,93.9h-6.5c-1,0-1.8,1-1.8,2.2v6.3c0,1.2,0.8,2.2,1.8,2.2l-0.9,98.4h8.3l-0.9-98.4c1,0,1.8-1,1.8-2.2
		v-6.3C262.4,94.9,261.6,93.9,260.6,93.9z"/>
</g>
<g>
	<path fill="#E4EFED" d="M80.3,129.4c0,0,13.8,6.1,14.8,6.9c0.9,0.8,2.6-1.4,5.8-0.6c3.2,0.8,44.2,31.4,44.9,31.9
		c2.1,1.4,0.6,5.3-1.6,4.3c-2.1-1-65.4-37.8-65.4-37.8S79.3,129.3,80.3,129.4z"/>
	<path fill="#E4EFED" d="M74,126.9c0,0-0.3-14.7,0-15.9s-2-1.7-2.6-4.9c-0.6-3.2,8.4-52,8.5-52.8c0.4-2.4,3.9-2.7,3.9-0.4
		c0,2.3-5.6,73.2-5.6,73.2S74.3,127.8,74,126.9z"/>
	<path fill="#E4EFED" d="M73.3,132.6c0,0-13.2,9.3-14.3,9.7c-1.1,0.4-0.4,3-2.8,5.3c-2.4,2.3-49.9,21.5-50.7,21.8
		c-2.3,1.1-4.5-1.7-2.5-3.1c2-1.3,67.8-38.1,67.8-38.1S73.9,131.9,73.3,132.6z"/>
	<path fill="#E4EFED" d="M82.3,134.2v-7.9c0-1.5-1-2.8-2.2-2.8h-8.1c-1.2,0-2.2,1.2-2.2,2.8v7.9c0,1.4,0.8,2.5,1.9,2.7l-1.4,139.7
		h11.4l-1.4-139.7C81.4,136.7,82.3,135.6,82.3,134.2z"/>
</g>
</svg>
