<?xml version="1.0" encoding="utf-8"?>
<!-- Generator: Adobe Illustrator 17.1.0, SVG Export Plug-In . SVG Version: 6.00 Build 0)  -->
<!DOCTYPE svg PUBLIC "-//W3C//DTD SVG 1.1//EN" "http://www.w3.org/Graphics/SVG/1.1/DTD/svg11.dtd">
<svg version="1.1" id="Layer_1" xmlns="http://www.w3.org/2000/svg" xmlns:xlink="http://www.w3.org/1999/xlink" x="0px" y="0px"
	 viewBox="0 0 300 300" enable-background="new 0 0 300 300" xml:space="preserve">
<path fill="#E4EFED" stroke="#E4EFED" stroke-miterlimit="10" d="M203,47.8c-1.8,0-1.2,2.7-20.2,3.3c-13.6,0.4-18.3-0.2-20.4-0.6
	c-4.4-2-9.4-3-13.7-2.5c-7.4,0.8-13.9,3.7-13.9,3.7s-37.4,2.8-37.2,3.5c0.8,2.5,16.3,6.3,27.9,5.1c4.6-0.5-0.2,0.5,0.8,0.6
	c0.9,0.2,13.7,5.7,21.9,4c1.9-0.4,1.6,0.8,2.2,0.8c0.6,0,3.6-0.5,3.6-0.5s7,3.4,5.6,6.5c-0.8,1.6-4-6.6-11.8-2.3
	c-4.5,2.5-5.9,4.6-6.5,7.6c-0.6,2.9-6.3,17.4,4.8,30.8c-1.4,6.6-0.6,33.5-0.6,33.5l1.1,10.3c0,0,2.1,18.1,6.9,32.3
	c0,2.8-0.6,8.4-0.9,8.7c-0.4,0.4-1.8,3.3-1.8,4.8c0,1.5,0.7,3.3,0.7,3.3s-10.5,37.9-11.2,39.2c-0.7,1.3-1.1,2.9-2.3,3.3
	c-0.8,0.2-1.2,0.7-1.7,1c-0.6,0.4-1.4,1.2-2.3,1.1c-0.9,0-5.8,0.1-6.8,0.4c-0.4,0.1-5.4,1.1-5.5,1.4c-0.1,0.2,1.5,0.6,1.5,0.6
	s9.2,0.4,13.9-0.8c1.3-0.3,2-1.3,3.7-0.7c1.7,0.6,3.3,0.6,4.6,1.6c1.2,0.9,2.1,0.3,2.5,1.7c0.5,1.5,2.1,1,2.1,0.8
	c0-0.2-0.7-3.5-5-5.8c-0.5-0.3-0.8-2.6-1.1-2.9c-0.2-0.3,8.4-33.6,9.7-36.2c1-2.1,1.3-4.1,1.8-4.2c0.9-0.3,3.4-3.5,3.1-6.4
	c0.1,0.2,0.3,0.5,0.5,0.7c3.3,14.4,5.8,21.2,10,20.9c1-0.1,1.7-0.3,2.1-0.5c0,5,0,9.3-0.2,9.7c-0.4,0.9-0.3,13-1.5,13.9
	c-1.8,1.4-7.4-0.2-8.5,0.2c-0.5,0.1-4.3,3.2-4.4,3.5c-0.1,0.2,4.7-0.8,5.8-1c1.1-0.3,1.5-0.1,3.2,0.9c1.2,0.7,1.6,0.2,2.1,1.7
	c0.7,2.1,1.6,5.5,1.9,6.7c0.1,0.6,0.5,0.9,1.7,0.8c0.7,0-0.4-2.3-0.5-4.1c-0.1-0.9-1.2-2.6,0-3.4c1-0.6,4-0.1,6.9-1.6
	c3.3-1.8,8.3,1.1,8.3,0.1c0-2.8-6.9-3.3-8.1-2.9c-1.1,0.3-5.4,1.2-5.4,0.1c0.1-2.4,0.2-4.8,0.8-6.6c0.3-1,0.5-10.1,0.6-17.8
	c0.4,0,0.7-0.2,1.1-0.7c1.5-2.3,2-4.9,2-4.9s3.4,2,3.9-2c2.5-3.6,2.8-1.8,6.6-20.8c2.5-12.3,1.3-2.3,2.9-12.6c0.3-2,4.3,4.5,5.8-3.3
	c1.5-7.7,0.3-15.5-1.5-18.7c-1.9-3.2,0.8-13.6,0.8-20.4c0-6.8,0.6-7.9-1.2-12.5c-1.9-4.6-1.9-21.1-7.2-25.4c0,0-2.8-11.7-16.7-9.4
	c-2.3,0.4,2.9-2.3,4.8-5.9c1.3-2.5,4.7-6.8,1.4-14.6c4.7,5.4,5.2,6.2,5.2,6.2c0.1-2.4-7.1-10.9-7.4-11.2c-0.1-0.1-0.9-0.8-1.8-1.7
	c-0.3-0.5-0.7-0.9-1.1-1.4c-0.3-0.3-0.5-0.6-0.8-0.9c2.8,0.4,9.8,1.3,10.3,1.3c0.7,0.1,13.3,3.5,16.3,1.1c0,0-2.9,1-16-1.8
	c-7.9-1.7-11.2-2.9-12.7-3.5c5.7-0.1,14.3-0.2,14.8-0.3C183.5,52.3,200.2,51.8,203,47.8z"/>
</svg>
