<?xml version="1.0" encoding="utf-8"?>
<!-- Generator: Adobe Illustrator 17.1.0, SVG Export Plug-In . SVG Version: 6.00 Build 0)  -->
<!DOCTYPE svg PUBLIC "-//W3C//DTD SVG 1.1//EN" "http://www.w3.org/Graphics/SVG/1.1/DTD/svg11.dtd">
<svg version="1.1" id="Layer_1" xmlns="http://www.w3.org/2000/svg" xmlns:xlink="http://www.w3.org/1999/xlink" x="0px" y="0px"
	 viewBox="0 0 300 300" enable-background="new 0 0 300 300" xml:space="preserve">
<path fill="#E4EFED" d="M229.1,150.1l-2.8-14.8c1.5-0.8,2.5-2.3,2.5-4.1c0-2-1.2-3.6-3-4.3l2.8-58.5l-2.7-0.1l-2.8,58.5
	c-2,0.5-3.5,2.3-3.5,4.5c0,2.3,1.8,4.3,4,4.5l2.8,14.8c0.5,2.9-1.3,5.6-3.9,6c-1.2,0.2-2.5-0.1-3.5-1c-1.1-0.8-1.8-2.1-2-3.5
	l-2.6,0.4c0.3,2.1,1.4,3.9,3,5.2c1.3,1,2.9,1.6,4.5,1.6c0.4,0,0.7,0,1.1-0.1C227,158.5,229.8,154.5,229.1,150.1z M224.2,133.6
	c-1.3,0-2.3-1-2.3-2.3c0-1.3,1-2.3,2.3-2.3c1.3,0,2.3,1.1,2.3,2.3C226.6,132.6,225.5,133.6,224.2,133.6z"/>
<path fill="#E4EFED" d="M192,179.3c9.9-3.5,22.2-8.3,27.7-12.3c1.7-1.2,2.7-2.1,3.2-3.3c0.2-0.4-18.3-3.6-18.3-4
	c0-0.3,18.6-8.5,18.6-8.8c-0.3-4.9-8.2-6-9.3-8.8c-1.4-3.8-9.1-8.9-9.1-8.9s-22-14-27.7-18.3c-5.8-4.3-23-7.7-43.3-2.9
	c-2.3,0.6-4.8,1.2-7.3,1.9L192,179.3z M198.7,139.4c1.6,0,2.9,1.3,2.9,2.9s-1.3,2.9-2.9,2.9s-2.9-1.3-2.9-2.9
	S197.1,139.4,198.7,139.4z"/>
<path fill="#E4EFED" d="M107.8,120.3c-9.1,3.5-16.1,7.1-16.1,9.2c0,3.8,14.9,17.3,14.9,17.3s4.3,11-14.4-4.3
	C73.5,127,60.3,136,60.3,136c8.7,6,14.3,12,15.5,16.1c1.2,4.1-8.4,11.9-10.8,14.3c-2.4,2.4,12.3,1.2,18.1,0.9
	c5.8-0.4,15.2-8.6,20.8-6.1c2.6,1.2-8.8,14.6-9.1,15.5c-0.3,0.9,22.1,13.1,32.1,14c5.6,0.5,17-1.2,24.3-5c6.4,0.6,13.4-1.5,13.4-1.5
	s-0.3,9.6-1.5,15.2c3,0.3,8.8-7.2,12-11.8L107.8,120.3z"/>
<circle fill="none" stroke="#E4EFED" stroke-width="10.6592" stroke-miterlimit="10" cx="149.8" cy="149.6" r="109.7"/>
<rect x="39.3" y="144.3" transform="matrix(0.7071 0.7071 -0.7071 0.7071 149.6788 -62.0607)" fill="#E4EFED" width="220.8" height="10.7"/>
</svg>
