<?xml version="1.0" encoding="utf-8"?>
<!-- Generator: Adobe Illustrator 17.1.0, SVG Export Plug-In . SVG Version: 6.00 Build 0)  -->
<!DOCTYPE svg PUBLIC "-//W3C//DTD SVG 1.1//EN" "http://www.w3.org/Graphics/SVG/1.1/DTD/svg11.dtd">
<svg version="1.1" id="Layer_2" xmlns="http://www.w3.org/2000/svg" xmlns:xlink="http://www.w3.org/1999/xlink" x="0px" y="0px"
	 viewBox="0 0 300 300" enable-background="new 0 0 300 300" xml:space="preserve">
<g id="EUF8wb_1_">
	<g>
		<path fill="#E4EFED" d="M141.2,207.6c0.3-2.2,0.1-4.5,0.2-6.7c-0.3,0-0.7-0.1-1-0.1c-0.8,5.7-1.9,11.4-2.5,17.2
			c-0.8,7.5-1.2,9.9-1.7,17.5c-0.1,1.3,0.3,2.6,0.5,3.9c-0.3,0.2-0.6,0.4-0.9,0.6c-1,0.8-1.9,1.6-2.9,2.4c-0.6-1.2-1.4-2.3-1.7-3.6
			c-0.4-1.6-0.3-3.4-0.5-5.1c-0.9-7.9-1.9-10.7-2.8-18.7c-0.4,0-0.8,0-1.1,0.1c-0.1,3.2-0.2,1.4-0.2,4.6c0,6,0,11.9,0,17.9
			c0,0.1,0,0.2,0,0.4c0,2.3-1.1,4.1-3.2,3.8c-1-0.1-2.2-2.5-2.3-4c-0.3-4.7,0.2-9.5-0.2-14.2c-1.2-12.2-2.7-19.2-4-31.4
			c-0.8,5.6-1.7,11.4-1.6,17.3c0,8.8,0.7,12.4,1,21.1c0,1.5-0.3,3.2-0.9,4.6c-0.5,1-1.7,2.1-2.7,2.2c-0.8,0.1-1.9-1.1-2.5-2
			c-0.6-1-0.8-2.3-0.9-3.5c-0.4-3.5-0.4-7.1-1-10.5c-2.7-14.9-4.3-24.7-4.6-39.9c-0.1-2.9-0.5-5.9-1.5-8.5
			c-2.6-6.7-5.4-13.5-8.6-19.9c-14.6-29.3-30.6-50.9-52.6-74.3c-0.6-0.6-1.2-1.2-1.7-1.8c-0.4-0.5-0.8-1.1-1.2-1.6
			c30.1,25.9,50.5,53.1,66.1,91.9c0.9-6.4,1.1-11.4-1.9-16.3c-8.1-13.2-15.7-26.7-23.8-39.8c-4-6.5-5.1-8.8-9.5-15
			c16.2,17.2,25.9,33,36.9,54.2C89.3,115,70.7,87.9,45,59.8c27.1,23.9,45.1,48.6,61.7,81.9c0.4-1,0.7-1.5,0.8-2.1
			c1.5-6.7,2.9-13.5,4.6-20.2c0.6-2.5,0.3-4.3-1.2-6.4c-4.5-6.3-8.7-12.7-13.1-19.1c0.2-0.1,0.3-0.3,0.5-0.4
			c5.2,6.1,10.4,12.1,15.5,18.2c0.3-0.2,0.7-0.3,1-0.5c-0.5-1.7-0.7-3.6-1.5-5c-10-16.9-14.9-26.2-27.4-41.1
			c-2.1-2.6-4.3-5.1-6.5-7.6c-2.1-2.4-4.4-4.7-6.5-7c0.2-0.2,0.4-0.4,0.6-0.6c19.4,16.8,29.4,29.9,43.2,52.1c2.7-4.6,2.8-8.2-1-11.7
			c-2.6-2.3-4.8-5.3-7.1-8c-3.3-3.7-6.5-7.4-9.8-11c0.1-0.2,0.3-0.3,0.4-0.5c7,6.9,14,13.7,21.2,20.9c2.3-6.7,4.6-12.9,6.6-19.2
			c0.5-1.8,0.5-4.1-0.1-5.9c-1.4-4.4-3.3-8.7-5-13c0.2-0.1,0.3-0.2,0.5-0.2c2.1,4.2,4.2,8.4,6.6,13.1c1-2.9,1.8-5.2,2.7-7.5
			c0.2,1.6,0.1,3-0.3,4.4c-1.4,4-0.7,7.7,1,11.5c2,4.4,3.5,9,5.2,13.5c0.7,1.8,1.3,3.6,1.9,5.4c0.2,0,0.5-0.1,0.7-0.1
			c2.7-9.2,5.4-18.5,8.1-27.7c0.4,0.6,0.5,1.1,0.4,1.5c-2.2,9.8-4.4,19.6-6.5,29.5c-0.3,1.3-0.8,2.7-0.5,3.9
			c1.3,5.5,2.8,11,4.2,16.5c5.6-11.3,6.4-24.5,13.2-35.4c-2.6,11.7-5.2,23.2-7.8,35c8.6-8.5,16.9-16.6,25-24.7
			c0.7-0.7,1.2-2.2,0.9-3.1c-3.3-14.9-0.7-1.6-4.6-16.4c-2.5-9.5-6.3-18.7-9.6-28C173.9,66.2,175.3,61,180,85.3
			c4.7-13.6,9.2-26.6,13.7-39.6c0.3,0.1,0.6,0.2,0.9,0.3c-3.7,12.9-7.3,25.7-11.3,39.5c7.5-5.7,14.1-10.7,20.7-15.7
			c0.2,0.3,0.4,0.6,0.6,0.9c-0.9,0.7-1.8,1.4-2.6,2.1c-6.1,5.6-12.3,11.1-18.2,16.8c-1.2,1.2-2.1,3.4-2.1,5.1c0.2,4,1,8,1.8,12.8
			c16.3-21.2,33.7-40.3,52.8-57.6c-0.7,1.3-1.9,2.2-2.8,3.2c-13.5,15.4-26.9,30.9-40.3,46.4c-1.2,1.4-2.3,3.1-2.9,4.9
			c-1.7,5.2-3.7,10.3-4.6,15.7c-0.8,4.4-0.3,9.1-0.4,13.6c4.1-5.6,7.5-11.3,11.1-16.7c3.6-5.4,7.4-10.6,11.4-15.7
			c4.1-5.1,8.4-10.1,12.9-14.9c4.4-4.7,9-9,13.6-13.5c-5.9,7.3-12.2,14.1-18,21.4c-5.8,7.2-11,15-16.5,22.5c0.3,0.2,0.5,0.5,0.8,0.7
			c24.4-27.7,32.9-37.4,62.2-59.1c-1,1.4-2.2,2.5-3.5,3.5c-32.8,26.9-44.3,42.1-70.4,76.3c-3,4-4,7.9-2.9,12.8
			c2.3-2.2,4.5-4.3,6.7-6.5c0.7-0.7,1.2-1.5,1.7-2.3c17.7-29.2,34-44.6,61-63.9c0.5-0.4,1.2-0.6,1.8-0.9
			c-22.4,17.9-35.3,30.4-51.5,54.7c12.3-9.9,25.1-19,39.1-25.9c-0.7,0.8-1.6,1.4-2.5,2c-15.2,9.5-29.2,20.6-42,33.4
			c-1.3,1.3-2.7,2.8-3.5,4.5c-3.6,7.3-7.1,14.8-10.5,22.2c-0.7,1.4-0.9,3-1.6,5.3c0.8-0.8,1-1,1.1-1.2c0.2-0.5,0.4-1.1,0.6-1.7
			c3.7-10,9.5-18.3,17.5-25c5.2-4.3,10.3-8.7,15.4-13.2c1.8-1.6,3.4-3.3,5-5c-4.4,9-10.5,16.2-18,22.3c-13.5,11-23,35.3-21.5,53.7
			c20.7-49,36.4-67.6,80.9-91.8c-2.2,1.9-4.7,3.5-7.2,5.1c-2.6,1.8-5.3,3.5-7.9,5.4c-37.6,27.4-48.2,45.8-64.6,91.1
			c-2.8,7.8-5.2,10.7-8,18.5c-0.4,1.2-1.8,2.8-2.6,2.7c-1.1-0.1-2.6-1.5-3-2.7c-0.7-2.1-0.8-4.5-1.2-6.8c-1.2-9.3-2.4-13.4-3.7-22.6
			c-0.9,1.8-1.3,3.6-1.4,5.4c-0.7,11-1.4,17-2,28c-0.1,2.5-0.6,4.3-3.9,4.3c-0.3-1.4-0.9-2.8-1-4.3c-0.1-3.3,0-6.6,0-9.9
			c-0.1-8.7-1.4-12.2-4.1-20.6c-0.9,3.7-1.7,7.4-1.7,11.1c-0.2,6.2,0.2,7.3,0.2,13.5c0,3-0.3,6.1-1.1,9c-0.3,1.3-2.2,2.1-3.4,3.1
			c-0.6-1-1.5-2-1.8-3.2c-0.4-1.6-0.4-3.4-0.6-5.1c-0.3-2.6-0.7-5.1-1-7.7c-1.9,4.5-3.2,8.9-4.8,13.2c-0.3,0.9-1.9,1.3-2.9,1.9
			c-0.5-0.8-0.9-1.6-1.4-2.5C138.2,227,139.7,219.9,141.2,207.6z M109.7,146.6c-0.1,0.6-0.1,1.3,0.2,1.8c3,7.2,6.1,14.4,9.3,21.8
			c3.2-8.2,6.3-16.1,9.3-24.1c0.5-1.2,0.6-3.1,0-4.1c-4.1-7.3-8.4-14.4-12.6-21.6c-0.4,0.1-0.8,0.1-1.2,0.2
			C112.9,129.3,111.3,137.9,109.7,146.6z M153,134.2c-0.4,0.7-0.3,2.1,0.1,2.9c1.4,2.9,3.1,5.7,5,9.3c4.5-10.7,13.5-18,14.8-30
			c0.6-5.7,2.4-11.3,3.7-17C167.2,110.1,159.6,121.8,153,134.2z M135.8,93.3c-2.2-6.3-4-12.9-6.2-20.3c-2.4,7.3-4.5,13.7-6.5,20
			c-0.2,0.7,0.1,2,0.6,2.6c3.8,4.7,7.7,9.3,11.6,14.1C138.1,104.1,137.7,98.9,135.8,93.3z M133.5,214.7c0.7-3.7,1.2-7.1,1.9-10.6
			c0.6-2.8,0.9-5.8,2-8.5c3.8-9.4,2.7-19.3,3-29.1c0-0.5,0-1-0.2-1.4c-0.1-0.3-0.4-0.6-0.8-1.2C133.1,180.5,127.5,196.7,133.5,214.7
			z M134.1,116.1c0.2-0.9-0.2-2.2-0.7-2.9c-3.7-5.1-7.5-10.1-11.6-15.4c-2.2,4.6-3.4,8.4-0.3,13c3.6,5.5,6.3,11.8,9.8,18.4
			C132.3,124.4,133.3,120.2,134.1,116.1z M182.1,164.2c-0.5-0.2-0.9-0.4-1.4-0.7c-2.7,4-6,7.4-7.9,12.2c-2.1,5.3,0.4,9.7,1.5,15.5
			C177.2,181.5,179.7,172.9,182.1,164.2z M108.4,164.7c-2.6,10.3,1,18.8,3.4,27.7C117.9,182,111.8,174,108.4,164.7z M151.2,122.8
			c-2.1,2.4-2.1,5.4-1.5,8.7c8.5-12,16.8-23.6,25.1-35.3c-0.1-0.1-0.2-0.2-0.4-0.3C166.7,104.9,158.9,113.8,151.2,122.8z
			 M136.5,159.4c0.6-2.5-1.7-5.6-3.1-8.4c-5.1,8.2-2.5,17.2-3,25.8C132.5,171,135.1,165.4,136.5,159.4z M138,130.6
			c4-6.3,4-6.3-1.7-12.6c-1.1,6.1-2.2,11.9-3.2,17.7c0.5,0.1,1,0.2,1.5,0.3C135.7,134.1,136.9,132.3,138,130.6z M158.2,164.2
			c2.8-3.3,2.5-6.1-0.3-9.5c-2.7,6.5-7.5,11.9-6.3,20C154,170.9,155.7,167.2,158.2,164.2z M180.7,130c-2.9,5.4-7.3,9.6-7.6,16.2
			C178,142.2,184,138.8,180.7,130z M151,158.2c5.6-6.6,5.5-9.6-1.4-18.1C150,146,150.5,152,151,158.2z M126.2,191.8
			c0.2-8.8,0.3-17.6,0.5-27C122.3,172.9,122.2,183.8,126.2,191.8z M160.7,149.7c-0.6,1.1,0.5,3.2,1.4,4.8c2.5-6.5,7.3-11.8,6.7-19.4
			C166,139.9,163.1,144.7,160.7,149.7z M140.3,151.1c3-5.2,2-11.4,3.3-16.9C140,139.2,134.2,143.8,140.3,151.1z M161.6,205.8
			c1.3-6.6,2.6-12.8,3.8-19.2C160.5,192.3,159.8,195.7,161.6,205.8z M155.7,188.6c0.6-4.5,1.2-8.9,1.8-13.8
			C153,179.9,152.4,183.2,155.7,188.6z M180.3,118.2c-4.3,4-5.7,7.4-4.5,11.5C177.2,125.6,181.7,123.3,180.3,118.2z M109.4,156.9
			c-0.3,0.1-0.7,0.3-1,0.4c2.6,6.6,5.1,13.2,7.7,19.8c0.4-0.2,0.7-0.3,1.1-0.5C114.6,170,112,163.5,109.4,156.9z M141.7,118.4
			c-0.9-4.1-1.5-7.2-2.3-10.9C137.2,113.2,137.2,113.2,141.7,118.4z M117.4,113.1c-1.2,2.6-0.3,4.4,5.7,10.4
			C121.2,120.1,119.4,116.6,117.4,113.1z M189,106.5c-2.1,2.4-5.5,4.2-5.1,8c0.3,0.2,0.6,0.3,0.9,0.5
			C186.2,112.1,187.6,109.3,189,106.5z M123.1,203.7c2.2-3.6,0.1-6.5-0.5-9.7c-0.3,0-0.6,0.1-0.9,0.1
			C122.2,197.3,122.7,200.5,123.1,203.7z M176.8,205.6c0.3,0,0.7-0.1,1-0.1c0.5-4,1.1-8.1,1.6-12.1c-0.3,0-0.5-0.1-0.8-0.1"/>
		<path fill="#E4EFED" d="M198.3,122.4c2-3.3,4-6.6,6.1-10.1"/>
		<path fill="#E4EFED" d="M141.2,201.7c-0.4,0-0.7-0.1-1.1-0.1"/>
		<path fill="#E4EFED" d="M138.7,189.6c0.3,0,0.6-0.1,0.8-0.1"/>
	</g>
</g>
</svg>
