<?xml version="1.0" encoding="utf-8"?>
<!-- Generator: Adobe Illustrator 17.1.0, SVG Export Plug-In . SVG Version: 6.00 Build 0)  -->
<!DOCTYPE svg PUBLIC "-//W3C//DTD SVG 1.1//EN" "http://www.w3.org/Graphics/SVG/1.1/DTD/svg11.dtd">
<svg version="1.1" id="Layer_2" xmlns="http://www.w3.org/2000/svg" xmlns:xlink="http://www.w3.org/1999/xlink" x="0px" y="0px"
	 viewBox="0 0 300 300" enable-background="new 0 0 300 300" xml:space="preserve">
<g>
	<path fill="#E4EFED" d="M202.1,49.1c-11.2-7-25.9-4.5-34.5,5.8l-22,23.8c5.7-4.4,12.8-7,20.5-7c18.5,0,33.6,15.1,33.6,33.6
		c0,3.9-0.7,7.7-1.9,11.3l14.6-33.5C218.1,70.9,213.4,56.1,202.1,49.1z"/>
	<path fill="#E4EFED" d="M166.1,136.8c-17.3,0-31.4-14.1-31.4-31.4c0-17.3,14.1-31.4,31.4-31.4s31.4,14.1,31.4,31.4
		C197.5,122.7,183.4,136.8,166.1,136.8z M166.1,78.9c-14.6,0-26.4,11.9-26.4,26.4c0,14.6,11.9,26.4,26.4,26.4
		c14.6,0,26.4-11.9,26.4-26.4C192.6,90.8,180.7,78.9,166.1,78.9z"/>
</g>
<g>
	<line fill="#E4EFED" x1="86.8" y1="215.8" x2="87.1" y2="221.2"/>
	<path fill="#E4EFED" d="M86.2,215.8c0,0,33.8,21.9,64.1,0l0.3,5.4c0,0-13.5,13.6-30.9,12.5c-17.3-1.1-33.8-12.5-33.8-12.5
		L86.2,215.8z"/>
	<path fill="#E4EFED" d="M149.6,215.8c0,0,33.8,21.9,64.1,0l0.3,5.4c0,0-13.5,13.6-30.9,12.5c-17.3-1.1-33.8-12.5-33.8-12.5
		L149.6,215.8z"/>
</g>
<path fill="#E4EFED" d="M219.1,156.7c0,0-37.2,11.8-41.2,55c0,0,0.9,5.5-2-2.7c0,0-2.4-76.7,3.8-84.7c0,0,4.2-3.5,5.2-8.5
	c0,0,3.1-17.5-16.7-17.2c-14.3,0.2-18.1,9.3-25.6,21.2c-12.8,20.5-25.5,90.7-25.5,90.7c-0.9,6.3-1,3-1,3
	c-4-43.2-34.1-53.6-34.1-53.6s-4.8-1-4,2.6c0.8,3.5,4.5,2.6,4.5,2.6c21.2,8.6,28.8,52.7,28.8,52.7c14.5,14,40.5-6.9,40.5-6.9l0-0.3
	c5.7,5,22.3,15.8,30.6,6.9c0,0,3.2-35.7,35.9-55.5c0,0,3.7,1,4.5-2.6C223.9,155.7,219.1,156.7,219.1,156.7z"/>
</svg>
