<?xml version="1.0" encoding="utf-8"?>
<!-- Generator: Adobe Illustrator 17.1.0, SVG Export Plug-In . SVG Version: 6.00 Build 0)  -->
<!DOCTYPE svg PUBLIC "-//W3C//DTD SVG 1.1//EN" "http://www.w3.org/Graphics/SVG/1.1/DTD/svg11.dtd">
<svg version="1.1" id="Layer_2" xmlns="http://www.w3.org/2000/svg" xmlns:xlink="http://www.w3.org/1999/xlink" x="0px" y="0px"
	 viewBox="0 0 300 300" enable-background="new 0 0 300 300" xml:space="preserve">
<path fill="#E4EFED" d="M258.8,168.4c-1-6.9-5.9-13.6-5.9-13.6c-0.3-7.6-4.9-14.6-4.9-14.6c-1.7-10.4-15.6-18.8-15.6-18.8
	c-24.3-18.4-29.9-13.9-48.3-21.5c-18.4-7.6-31.6-4.9-48-5.6c-16.3-0.7-24,2.4-27.5,3.8c-3.5,1.4-12.2,3.8-12.2,3.8
	c-40.3,16-33.4,52.5-33.4,52.5l-4.7,12.3c0,0-1.8,2.8-2.4,4c-1.5,2.9-4.3,12.2-4.3,12.2c-6.6,14.2,8,22.9,8,22.9
	c22.2,14.6,37.5-5.6,37.5-5.6c10.8-10.4,8.3-28.8,8.3-28.8c7,1.4,21.9,3.1,21.9,3.1c27.8,2.4,32.1-1.7,32.1-1.7s13.5-11.7,15.1-11.9
	c0.5-0.1-11.5,12-11.8,12.4c-2.1,2.6-8.3,8.8-11.3,11.1c-5.2,3.8-6.3,12.9-6.3,12.9s8.3,5.2,21.5-0.3c13.2-5.6,22.6-24,23.6-24.3
	c1-0.3,15.6,0.3,15.6,0.3s2.1,7.3,6.3,5.6c4.2-1.7,5.9-6.3,5.9-6.3s0.6-3,0.7-6c0-3-0.4-9.7-0.4-9.7l0.2-0.2c0,0,1.3,6.8,1.5,10
	c0.1,2.3-0.1,4.6-0.3,5.6c0,0.3,0.1,0.6,0.4,0.7l0.8,0.3c0.1,0,0.3,0,0.4,0c0.7-0.2,2.8-0.5,4,3.6c0.2,0.8,0.7,1.5,1.4,2.3
	c3.8,2.2,12.8,7.5,12.8,7.5c7.6,0.7,16.7-2.4,16.7-2.4C261.6,180.2,258.8,168.4,258.8,168.4z M238,155.3c-0.4,2-2.8,3.1-3.1,3.3
	c-0.2,0.1-3.3,0.8-5.5,0.7c0-0.6,0-1,0-1.2c-0.3-1.2-1-2,0.6-4.1c1.3-1.8,3.5-1.6,5.3-1.6C236.7,152.4,238.1,154.8,238,155.3z"/>
</svg>
