<?xml version="1.0" encoding="utf-8"?>
<!-- Generator: Adobe Illustrator 17.1.0, SVG Export Plug-In . SVG Version: 6.00 Build 0)  -->
<!DOCTYPE svg PUBLIC "-//W3C//DTD SVG 1.1//EN" "http://www.w3.org/Graphics/SVG/1.1/DTD/svg11.dtd">
<svg version="1.1" id="Layer_2" xmlns="http://www.w3.org/2000/svg" xmlns:xlink="http://www.w3.org/1999/xlink" x="0px" y="0px"
	 viewBox="0 0 300 300" enable-background="new 0 0 300 300" xml:space="preserve">
<g>
	<g>
		<path fill="#E4EFED" d="M148.9,118.6c-7.8-5.7-15.7-11.5-23.5-17.2c-3.6,4.1,18,10.6,10.8,16.6c-2-1.8-18.5-18.8-20.9-17.2
			c0,0,0,0,0,0l93,93c0.1-0.2,0.2-0.5,0.3-0.7c0.5,0.3,0.6,0.8,0.5,1.6l8.1,8.1c0.2-0.4,0.4-0.8,0.6-1.3c-0.1,0.6-0.1,1.1-0.2,1.7
			l3.2,3.2c3.1-5.7,4.3-11.9,3.5-18.7c3.6,6.9,0.3,13.7,0.1,20.7c9.7-9.2,4.9-27.4-1.3-36.8c2.2-0.5,4.2-1.4,6-2.7
			c-2.5,6.1,2.3-0.6,6.3-4.7c2.4,1.6-5.5,9.5,3.6-0.2c0,0.5,12.8-11.9,3-19.9c-10.5-8.6-7.4-9.7-9.5-21c-0.7,2.3-1.2,4.1-1.7,5.9
			c-1.3-3.1,0-6.5-2.7-9.1c-1.5,11.4-8.5,10.9-8.2,8.3c0.4-3,0.8-3.8,1.2-7.5c-1.9,1.5-3.4,2.7-5,3.9c4.5-9.4,6.1-18.8,3.1-29.4
			c-5.9,9.2-0.1,15.8-8,26.3c1-9.1,5.6-25.9-2-34.6c0.4,4.7,0.1,36.6-5.5,35.5c0-15.6,2.6-28.4-11.2-39.9
			c-6.1,10.5,15.8,23.1,5.2,36.8c-15.2-11.9-7.4-44.5-31.2-49.6c6.5,14.7,24.4,31.3,18.4,48.5c-13.8-9.3-15.8-32.3-30.3-43.7
			c-6.5,4.5,21.9,33.1,20.4,41.1c-2.5-4-23.8-35.8-30.1-30.6c5.1,5.3,25.4,23.1,21.2,31.3c-6.6-9.6-17-30-31.1-31.3
			c7.8,8.7,25,20.8,25.3,32.5c-7.4-9.6-14-19.8-26.3-24.6c2.6,2.6,24.7,23,21.3,25.7c-4-4.4-36.3-38.6-40.4-23.9
			C119.3,94.5,154,111.8,148.9,118.6z M229,137.2c1.9,0,3.5,1.6,3.5,3.5s-1.6,3.5-3.5,3.5s-3.5-1.6-3.5-3.5S227,137.2,229,137.2z"/>
		<path fill="#E4EFED" d="M194.7,209.7C194.7,209.7,194.7,209.7,194.7,209.7c-0.1,0.4-0.3,0.7-0.3,1.1c0.7-0.5,1.3-0.9,1.8-1.3
			c0.9-0.7,1.8-1.5,2.7-2.2l-1.6-1.6c-0.9,1-1.6,2.1-2.2,3.3C194.9,209.2,194.8,209.4,194.7,209.7z"/>
		<path fill="#E4EFED" d="M205.4,213.9c-1.1,2.2-2,4.6-2.5,7.3c2-1.4,3.7-2.9,5.3-4.5L205.4,213.9z"/>
		<path fill="#E4EFED" d="M196.5,205l-87.9-87.9c-1.8-1-3.9-2.1-6-3c-0.2,0.4,17,22.8,17.3,25.5c-6.9-2.6-6.8-2.5-1.1,2
			c-0.7-0.1-1.3-0.1-2.4-0.2c-3.9-2.6-7-3.4-8.4-0.7c5.6-0.3,8.6,2.7,7.8,5.2c-4.8-4.3-7.8-5-9.2-1.9c2.7,1.3,5.4,2.5,8.1,3.8
			c-4.5,0.3-8.7-0.6-12.6-2.5c-1.6,3.8,7.9,1.6,6.9,5c-23.2-7.3-1.3-0.8-3,2.3c-20.2-12.7-6.9-4.8-8.4-2.4c-1.8-0.9-3.6-1.8-5.3-2.8
			c0.2,0.7,0.2,1.1,0.3,1.5c-16.1-7-32-14.2-33.3-12.8c-20.8,22.5,2.6,57.7,1.2,59.2c17.3,3.7,34.4-15.3,47.8-21.9
			c-0.4,1-0.7,1.5-0.9,2.1c0.6,0.1,1.1,0.2,1.9,0.4c-0.8,0.4-1.4,0.7-2.2,1.1c0.6,0.2,0.9,0.3,1.3,0.5c-0.4,0.2-0.8,0.4-1.6,0.7
			c1.1,0.4,1.9,0.7,2.9,1c-1.2,0.2-2.2,0.4-3.4,0.7c0.6,0.5,1,0.8,1.6,1.2c-4.3,1-1.4,1.2,2.8,2.6c-6.5,0.4-5.2,0.6,1.1,1.8
			c-0.4,2.1-10.6,0,1.6,2.3c-8.5,0.7-5,1.2,2.4,2.1c-6.5-0.9-9.8,0.4-9.9,3.9c9.9,0,10.1,4.7,15.6,4.1c-1,5.5,8.6,3.1,6.1,8.7
			c1,0,1.9,0,3,0c-0.5,1.3-1,2.4-1.5,3.6c14-1.8,22.7-20.4,23.6-31.8c2.8,1.8,1,8.6,0.8,10.7c4.2-0.4,4.3,4.9,9.5,4.6
			c-0.1,1.2-0.2,2.1-0.3,3.1c1.1-0.3,2.2-0.5,3.6-0.8c-0.7,1.5-1.2,3.1-1.4,4.7c1.3-0.4,2.2-0.7,3.5-1.1c0,0.9,0,1.5,0,2.5
			c1.1-0.6,1.8-1,2.8-1.5c0.1,1,0.2,1.8,0.3,2.7c1.1-0.7,2.1-1.3,3.4-2.2c0,1,0,1.8,0,2.8c0.8-0.5,1.5-0.8,2.2-1.2
			c0.2,0.6,0.4,1.1,0.6,1.7c0.7-0.3,1.4-0.6,2.2-1c0.1,0.7,0.1,1.3,0.3,2.4c0.7-1.2,1.2-2,2.1-3.4c0.8,1.7,1.4,2.9,2.1,4.2
			c0.8-0.9,1.7-2,3-3.4c0.2,1.2,0.3,1.7,0.5,2.5c1.1-2.6,2.3-2.8,3.7-0.7c-3.9,4.9-9.6,8.7-16.5,11.9
			C183.5,217.6,190.6,211.5,196.5,205z"/>
		<path fill="#E4EFED" d="M200.3,208.8c-3.2,4.2-6.1,8-6.5,9.6c3.4-2.1,6.5-4.4,9.2-6.9L200.3,208.8z"/>
	</g>
	<path fill="none" stroke="#E4EFED" stroke-width="10.6592" stroke-miterlimit="10" d="M271,150.8c0,66.5-53.9,120.5-120.5,120.5
		S30.1,217.3,30.1,150.8S84,30.3,150.6,30.3S271,84.2,271,150.8z M234.4,231.4L67,64"/>
</g>
</svg>
